<svg width="316" height="75" viewBox="0 0 316 75" fill="none" xmlns="http://www.w3.org/2000/svg">
<g clip-path="url(#clip0_42_693)">
<path d="M107.438 40.4041V44.1218H89.572V43.3235C99.3768 35.3814 103.37 31.2548 103.37 28.355C103.37 25.6646 101.181 23.6591 98.9033 23.6591C98.2385 23.6582 97.5801 23.7897 96.9667 24.046C96.3532 24.3023 95.7969 24.6782 95.3303 25.1518C94.8637 25.6253 94.496 26.1871 94.2488 26.8042C94.0016 27.4214 93.8797 28.0816 93.8904 28.7464L90.474 27.9363C90.474 23.4556 94.1917 19.9355 98.7859 19.9355C103.464 19.9355 107.127 23.7804 107.127 28.1731C107.127 32.2997 102.926 36.9585 97.5278 40.4041H107.438Z" fill="url(#paint0_linear_42_693)"/>
<path d="M137.078 20.29V20.9866L127.531 44.1319H123.589L131.767 23.9431H120.779V20.29H137.078Z" fill="url(#paint1_linear_42_693)"/>
<path d="M160.313 40.5081H149.029L147.401 44.1318H143.349L154.56 19.8027H154.782L165.991 44.1318H161.939L160.313 40.5081ZM158.863 37.2992L154.678 27.9816L150.477 37.2992H158.863Z" fill="white"/>
<path d="M183.883 23.9589V30.3337H192.903V34.0513H183.883V44.1535H180.146V20.2314H194.343V23.9491L183.883 23.9589Z" fill="white"/>
<path d="M221.928 44.1319L215.508 34.9024H212.573V44.1319H208.84L208.824 20.29H216.234C220.668 20.29 224.309 23.7161 224.309 27.9523C224.309 31.0282 222.327 33.7049 219.592 34.5932L226.526 44.1319H221.928ZM216.322 31.805C218.571 31.8206 220.449 30.0009 220.449 27.8701C220.449 25.6532 218.541 24.0116 216.322 24.0116H212.566V31.7971L216.322 31.805Z" fill="white"/>
<path d="M240.55 20.29H244.291V44.1319H240.55V20.29Z" fill="white"/>
<path d="M89.572 53.3691L89.9634 53.0756C90.083 53.2794 90.2549 53.4476 90.4613 53.5629C90.6677 53.6781 90.901 53.7362 91.1373 53.7311C91.738 53.7311 92.2272 53.4063 92.2272 52.9485C92.2272 52.4339 91.5698 52.1854 90.9828 51.9701C90.3958 51.7549 89.7912 51.4751 89.7912 50.7648C89.7912 50.0546 90.4251 49.5321 91.2313 49.5321C91.509 49.5166 91.7847 49.5877 92.0202 49.7356C92.2558 49.8835 92.4395 50.1009 92.5461 50.3578L92.1548 50.62C92.0732 50.4424 91.9417 50.2923 91.7764 50.1881C91.611 50.0839 91.4189 50.03 91.2234 50.033C90.7304 50.033 90.3097 50.3559 90.3097 50.7668C90.3097 51.2109 90.8125 51.3733 91.4054 51.6003C92.0942 51.8801 92.7477 52.1991 92.7477 52.9367C92.7477 53.7292 92.0159 54.2438 91.1334 54.2438C90.3782 54.2516 89.7912 53.8583 89.572 53.3691Z" fill="white"/>
<path d="M95.71 52.4067V49.5989H96.2246V52.4028C96.2246 53.1756 96.7255 53.7372 97.3986 53.7372C98.0717 53.7372 98.5726 53.1717 98.5726 52.4028V49.5989H99.0931V52.4067C99.0931 53.477 98.3691 54.2596 97.3927 54.2596C96.4164 54.2596 95.71 53.477 95.71 52.4067Z" fill="white"/>
<path d="M102.365 49.5989H103.82C104.709 49.5989 105.435 50.2661 105.435 51.0801C105.435 51.8627 104.709 52.4947 103.82 52.4947H102.877V54.1892H102.365V49.5989ZM104.908 51.0742C104.908 50.5439 104.415 50.1115 103.813 50.1115H102.877V51.9821H103.815C104.423 51.988 104.916 51.5771 104.916 51.0742H104.908Z" fill="white"/>
<path d="M108.399 49.5989H109.853C110.741 49.5989 111.467 50.2661 111.467 51.0801C111.467 51.8627 110.741 52.4947 109.853 52.4947H108.916V54.1892H108.399V49.5989ZM110.943 51.0742C110.943 50.5439 110.45 50.1115 109.845 50.1115H108.916V51.9821H109.853C110.457 51.988 110.95 51.5771 110.95 51.0742H110.943Z" fill="white"/>
<path d="M114.189 51.8917C114.186 51.424 114.323 50.9662 114.582 50.5763C114.84 50.1865 115.208 49.8822 115.64 49.7021C116.072 49.5221 116.547 49.4744 117.006 49.565C117.465 49.6557 117.886 49.8807 118.217 50.2114C118.548 50.5421 118.773 50.9637 118.863 51.4225C118.954 51.8813 118.906 52.3568 118.726 52.7884C118.546 53.2201 118.242 53.5885 117.852 53.8469C117.462 54.1053 117.004 54.242 116.537 54.2397C115.916 54.2346 115.321 53.9856 114.882 53.5463C114.443 53.1071 114.194 52.5128 114.189 51.8917ZM118.384 51.8917C118.385 51.5287 118.278 51.1736 118.077 50.8714C117.876 50.5691 117.59 50.3333 117.254 50.1937C116.919 50.054 116.55 50.0169 116.194 50.087C115.838 50.157 115.511 50.3311 115.253 50.5872C114.996 50.8434 114.821 51.17 114.749 51.5259C114.678 51.8818 114.713 52.2509 114.851 52.5865C114.99 52.9222 115.224 53.2093 115.526 53.4116C115.827 53.614 116.182 53.7224 116.545 53.7231C117.031 53.7221 117.497 53.5291 117.841 53.1861C118.186 52.843 118.381 52.3778 118.384 51.8917Z" fill="white"/>
<path d="M124.628 54.1892L123.348 52.3988H122.489V54.1892H121.972V49.5989H123.328C123.727 49.5889 124.114 49.7372 124.403 50.0115C124.693 50.2858 124.862 50.6637 124.874 51.0624C124.871 51.3503 124.775 51.6295 124.602 51.8591C124.428 52.0887 124.186 52.2566 123.909 52.3382L125.279 54.1892H124.628ZM123.342 51.9625C123.469 51.9707 123.596 51.9529 123.715 51.9101C123.834 51.8674 123.944 51.8005 124.036 51.7138C124.129 51.627 124.203 51.5222 124.253 51.4058C124.304 51.2894 124.33 51.1639 124.33 51.037C124.33 50.9101 124.304 50.7846 124.253 50.6682C124.203 50.5518 124.129 50.447 124.036 50.3602C123.944 50.2735 123.834 50.2067 123.715 50.1639C123.596 50.1211 123.469 50.1033 123.342 50.1115H122.487V51.9586L123.342 51.9625Z" fill="white"/>
<path d="M130.867 50.1115H129.537V54.1892H129.018V50.1115H127.684V49.5989H130.867V50.1115Z" fill="white"/>
<path d="M133.83 49.5989H134.348V54.1892H133.83V49.5989Z" fill="white"/>
<path d="M141.341 49.5868V54.2593H141.316L138.17 50.7666V54.1947H137.651V49.5281H137.678L140.823 53.0188V49.5868H141.341Z" fill="white"/>
<path d="M148.955 52.0874C148.961 52.3743 148.908 52.6596 148.801 52.9258C148.694 53.192 148.533 53.4337 148.33 53.6363C148.127 53.8389 147.884 53.9982 147.618 54.1046C147.351 54.211 147.066 54.2623 146.779 54.2553C146.154 54.2579 145.553 54.012 145.109 53.5717C144.665 53.1314 144.414 52.5327 144.411 51.9074C144.409 51.282 144.655 50.6813 145.095 50.2373C145.535 49.7933 146.134 49.5424 146.759 49.5398C147.378 49.5651 147.967 49.8092 148.422 50.2285L148.131 50.659C147.763 50.2982 147.276 50.0845 146.761 50.0583C146.515 50.0535 146.271 50.0982 146.042 50.1896C145.814 50.2811 145.606 50.4175 145.432 50.5907C145.257 50.764 145.119 50.9705 145.026 51.1981C144.932 51.4258 144.886 51.6698 144.888 51.9158C144.891 52.1618 144.943 52.4048 145.042 52.6302C145.14 52.8557 145.283 53.0591 145.461 53.2284C145.64 53.3977 145.85 53.5294 146.081 53.6157C146.311 53.7021 146.557 53.7412 146.802 53.731C147.7 53.731 148.407 53.1303 148.407 52.3182C148.409 52.2883 148.409 52.2582 148.407 52.2282H146.761V51.7606H148.943C148.952 51.8692 148.956 51.9783 148.955 52.0874Z" fill="white"/>
<path d="M159.748 49.5868V54.2593H159.722L156.576 50.7666V54.1947H156.057V49.5281H156.087L159.229 53.0188V49.5868H159.748Z" fill="white"/>
<path d="M163.569 50.1096V51.5614H165.457V52.0877H163.569V53.6824H165.747V54.197H163.05V49.5989H165.747V50.1096H163.569Z" fill="white"/>
<path d="M170.049 51.8021L168.609 49.5989H169.208L170.353 51.3599L171.491 49.5989H172.094L170.652 51.8021L172.217 54.1892H171.63L170.36 52.2697L169.095 54.1892H168.508L170.049 51.8021Z" fill="white"/>
<path d="M177.944 50.1115H176.616V54.1892H176.097V50.1115H174.761V49.5989H177.944V50.1115Z" fill="white"/>
<path d="M189.262 52.0874C189.268 52.3742 189.215 52.6592 189.108 52.9253C189.001 53.1914 188.841 53.433 188.638 53.6356C188.435 53.8381 188.193 53.9975 187.926 54.104C187.66 54.2105 187.375 54.262 187.088 54.2553C186.778 54.2568 186.471 54.1972 186.185 54.08C185.898 53.9628 185.638 53.7903 185.418 53.5724C184.973 53.1322 184.722 52.5337 184.719 51.9083C184.717 51.283 184.962 50.6822 185.402 50.238C185.843 49.7938 186.441 49.5426 187.066 49.5398C187.685 49.5651 188.274 49.8092 188.73 50.2285L188.44 50.659C188.072 50.2987 187.585 50.0851 187.07 50.0583C186.824 50.0537 186.58 50.0985 186.352 50.1901C186.123 50.2817 185.916 50.4182 185.741 50.5916C185.567 50.7649 185.429 50.9715 185.336 51.1992C185.242 51.4268 185.196 51.6709 185.199 51.9168C185.202 52.1628 185.254 52.4057 185.352 52.6311C185.451 52.8565 185.594 53.0598 185.772 53.229C185.951 53.3982 186.161 53.5298 186.392 53.616C186.622 53.7022 186.868 53.7413 187.113 53.731C188.01 53.731 188.716 53.1303 188.716 52.3182C188.718 52.2883 188.718 52.2582 188.716 52.2282H187.07V51.7606H189.252C189.262 51.8692 189.265 51.9783 189.262 52.0874Z" fill="white"/>
<path d="M192.841 50.1096V51.5614H194.729V52.0877H192.841V53.6824H195.02V54.197H192.324V49.5989H195.02V50.1096H192.841Z" fill="white"/>
<path d="M201.867 49.5868V54.2593H201.841L198.695 50.7666V54.1947H198.176V49.5281H198.206L201.348 53.0188V49.5868H201.867Z" fill="white"/>
<path d="M212.205 53.4336H209.699L209.362 54.1888H208.803L210.924 49.5281H210.981L213.106 54.1888H212.542L212.205 53.4336ZM212.01 52.9835L210.959 50.6238L209.906 52.9835H212.01Z" fill="white"/>
<path d="M216.514 50.1032V51.6314H218.4V52.1499H216.514V54.1946H215.996V49.5867H218.692V50.1032H216.514Z" fill="white"/>
<path d="M224.315 54.1892L223.034 52.3988H222.177V54.1892H221.658V49.5989H223.016C223.415 49.5889 223.801 49.7372 224.091 50.0115C224.381 50.2858 224.55 50.6637 224.562 51.0624C224.559 51.3503 224.463 51.6295 224.29 51.8591C224.116 52.0887 223.873 52.2566 223.597 52.3382L224.967 54.1892H224.315ZM223.028 51.9625C223.154 51.9707 223.281 51.9529 223.401 51.9101C223.52 51.8674 223.63 51.8005 223.722 51.7138C223.815 51.627 223.889 51.5222 223.939 51.4058C223.989 51.2894 224.015 51.1639 224.015 51.037C224.015 50.9101 223.989 50.7846 223.939 50.6682C223.889 50.5518 223.815 50.447 223.722 50.3602C223.63 50.2735 223.52 50.2067 223.401 50.1639C223.281 50.1211 223.154 50.1033 223.028 50.1115H222.173V51.9586L223.028 51.9625Z" fill="white"/>
<path d="M227.822 49.5989H228.34V54.1892H227.822V49.5989Z" fill="white"/>
<path d="M231.4 51.8917C231.405 51.2689 231.653 50.6727 232.092 50.2309C232.531 49.7891 233.126 49.5368 233.748 49.5281C234.351 49.543 234.924 49.7946 235.343 50.2286L235.042 50.6355C234.875 50.4587 234.674 50.3167 234.452 50.218C234.229 50.1192 233.99 50.0656 233.746 50.0603C233.442 50.0552 233.141 50.1262 232.87 50.2667C232.6 50.4072 232.369 50.6129 232.198 50.8652C232.027 51.1174 231.922 51.4083 231.892 51.7115C231.861 52.0147 231.907 52.3206 232.025 52.6017C232.143 52.8827 232.328 53.13 232.566 53.3211C232.803 53.5123 233.084 53.6413 233.384 53.6965C233.683 53.7517 233.992 53.7313 234.282 53.6372C234.572 53.5432 234.834 53.3783 235.044 53.1577L235.343 53.5744C235.139 53.7871 234.895 53.9565 234.624 54.0725C234.354 54.1885 234.062 54.2487 233.768 54.2495C233.142 54.2474 232.543 53.9987 232.099 53.5572C231.656 53.1158 231.405 52.5173 231.4 51.8917Z" fill="white"/>
<path d="M241.291 53.4336H238.787L238.45 54.1888H237.887L240.01 49.5281H240.066L242.191 54.1888H241.628L241.291 53.4336ZM241.096 52.9835L240.039 50.6238L238.984 52.9835H241.096Z" fill="white"/>
<path d="M248.772 49.5868V54.2593H248.746L245.6 50.7666V54.1947H245.081V49.5281H245.111L248.257 53.0188V49.5868H248.772Z" fill="white"/>
<path d="M256.117 49.5989H256.635V54.1892H256.117V49.5989Z" fill="white"/>
<path d="M263.628 49.5868V54.2593H263.603L260.457 50.7666V54.1947H259.938V49.5281H259.966L263.11 53.0188V49.5868H263.628Z" fill="white"/>
<path d="M270.622 49.5868V54.2593H270.596L267.45 50.7666V54.1947H266.931V49.5281H266.959L270.103 53.0188V49.5868H270.622Z" fill="white"/>
<path d="M273.682 51.8917C273.679 51.424 273.816 50.9662 274.075 50.5763C274.333 50.1865 274.701 49.8822 275.133 49.7021C275.565 49.5221 276.04 49.4744 276.499 49.565C276.958 49.6557 277.379 49.8807 277.71 50.2114C278.041 50.5421 278.266 50.9637 278.356 51.4225C278.447 51.8813 278.399 52.3568 278.219 52.7884C278.039 53.2201 277.735 53.5885 277.345 53.8469C276.955 54.1053 276.497 54.242 276.03 54.2397C275.409 54.2346 274.814 53.9856 274.375 53.5463C273.936 53.1071 273.687 52.5128 273.682 51.8917ZM277.877 51.8917C277.878 51.5287 277.771 51.1736 277.57 50.8714C277.369 50.5691 277.082 50.3333 276.747 50.1937C276.412 50.054 276.043 50.0169 275.687 50.087C275.331 50.157 275.004 50.3311 274.746 50.5872C274.489 50.8434 274.314 51.17 274.242 51.5259C274.171 51.8818 274.206 52.2509 274.344 52.5865C274.483 52.9222 274.717 53.2093 275.019 53.4116C275.32 53.614 275.675 53.7224 276.038 53.7231C276.524 53.7221 276.99 53.5291 277.334 53.1861C277.679 52.843 277.874 52.3778 277.877 51.8917Z" fill="white"/>
<path d="M284.87 49.5989L282.78 54.2596H282.718L280.636 49.5989H281.186L282.751 53.1561L284.316 49.5989H284.87Z" fill="white"/>
<path d="M289.613 53.4336H287.106L286.772 54.1888H286.216L288.337 49.5281H288.394L290.521 54.1888H289.957L289.613 53.4336ZM289.417 52.9835L288.368 50.6238L287.316 52.9835H289.417Z" fill="white"/>
<path d="M295.677 50.1115H294.348V54.1892H293.829V50.1115H292.493V49.5989H295.677V50.1115Z" fill="white"/>
<path d="M298.171 51.8917C298.169 51.424 298.306 50.9662 298.564 50.5763C298.822 50.1865 299.191 49.8822 299.623 49.7021C300.054 49.5221 300.53 49.4744 300.988 49.565C301.447 49.6557 301.869 49.8807 302.2 50.2114C302.53 50.5421 302.755 50.9637 302.846 51.4225C302.937 51.8813 302.889 52.3568 302.709 52.7884C302.529 53.2201 302.224 53.5885 301.835 53.8469C301.445 54.1053 300.987 54.242 300.519 54.2397C299.898 54.2346 299.304 53.9856 298.865 53.5463C298.425 53.1071 298.176 52.5128 298.171 51.8917ZM302.364 51.8917C302.365 51.5287 302.258 51.1736 302.057 50.8714C301.856 50.5691 301.57 50.3333 301.235 50.1937C300.9 50.054 300.531 50.0169 300.175 50.087C299.819 50.157 299.491 50.3311 299.234 50.5872C298.977 50.8434 298.801 51.17 298.73 51.5259C298.658 51.8818 298.694 52.2509 298.832 52.5865C298.97 52.9222 299.205 53.2093 299.506 53.4116C299.807 53.614 300.162 53.7224 300.525 53.7231C301.011 53.7221 301.477 53.5291 301.822 53.1861C302.166 52.843 302.361 52.3778 302.364 51.8917Z" fill="white"/>
<path d="M308.61 54.1892L307.328 52.3988H306.471V54.1892H305.953V49.5989H307.307C307.706 49.5889 308.093 49.7372 308.383 50.0114C308.673 50.2856 308.842 50.6635 308.855 51.0624C308.851 51.3505 308.755 51.6297 308.581 51.8593C308.407 52.0889 308.164 52.2567 307.888 52.3382L309.258 54.1892H308.61ZM307.323 51.9625C307.449 51.9707 307.576 51.9529 307.696 51.9101C307.815 51.8674 307.924 51.8005 308.017 51.7138C308.11 51.627 308.183 51.5222 308.234 51.4058C308.284 51.2894 308.31 51.1639 308.31 51.037C308.31 50.9101 308.284 50.7846 308.234 50.6682C308.183 50.5518 308.11 50.447 308.017 50.3602C307.924 50.2735 307.815 50.2067 307.696 50.1639C307.576 50.1211 307.449 50.1033 307.323 50.1115H306.467V51.9586L307.323 51.9625Z" fill="white"/>
<path d="M311.827 53.3691L312.218 53.0756C312.338 53.2794 312.51 53.4476 312.716 53.5629C312.922 53.6781 313.156 53.7362 313.392 53.7311C313.993 53.7311 314.482 53.4063 314.482 52.9485C314.482 52.4339 313.825 52.1854 313.238 51.9701C312.651 51.7549 312.046 51.4751 312.046 50.7648C312.046 50.0546 312.68 49.5321 313.486 49.5321C313.764 49.5166 314.039 49.5877 314.275 49.7356C314.511 49.8835 314.694 50.1009 314.801 50.3578L314.41 50.62C314.328 50.4424 314.196 50.2923 314.031 50.1881C313.866 50.0839 313.674 50.03 313.478 50.033C312.985 50.033 312.564 50.3559 312.564 50.7668C312.564 51.2109 313.069 51.3733 313.66 51.6003C314.349 51.8801 315.002 52.1991 315.002 52.9367C315.002 53.7292 314.271 54.2438 313.388 54.2438C312.631 54.2516 312.044 53.8583 311.827 53.3691Z" fill="white"/>
<path d="M280.048 28.4545H277.258C277.093 27.6518 276.804 26.9467 276.391 26.3392C275.986 25.7316 275.491 25.2215 274.906 24.809C274.329 24.3889 273.687 24.0738 272.982 23.8638C272.277 23.6538 271.542 23.5488 270.777 23.5488C269.382 23.5488 268.118 23.9013 266.985 24.6064C265.86 25.3115 264.964 26.3504 264.296 27.7231C263.636 29.0958 263.306 30.7798 263.306 32.775C263.306 34.7703 263.636 36.4543 264.296 37.827C264.964 39.1997 265.86 40.2386 266.985 40.9437C268.118 41.6488 269.382 42.0013 270.777 42.0013C271.542 42.0013 272.277 41.8963 272.982 41.6863C273.687 41.4762 274.329 41.165 274.906 40.7524C275.491 40.3323 275.986 39.8185 276.391 39.2109C276.804 38.5958 277.093 37.8907 277.258 37.0956H280.048C279.838 38.2733 279.456 39.3272 278.9 40.2573C278.345 41.1875 277.655 41.9788 276.83 42.6314C276.005 43.2765 275.079 43.7678 274.051 44.1054C273.031 44.4429 271.94 44.6117 270.777 44.6117C268.812 44.6117 267.064 44.1316 265.534 43.1715C264.003 42.2113 262.8 40.8462 261.922 39.0759C261.044 37.3057 260.605 35.2054 260.605 32.775C260.605 30.3447 261.044 28.2444 261.922 26.4742C262.8 24.7039 264.003 23.3387 265.534 22.3786C267.064 21.4185 268.812 20.9384 270.777 20.9384C271.94 20.9384 273.031 21.1072 274.051 21.4447C275.079 21.7823 276.005 22.2774 276.83 22.9299C277.655 23.575 278.345 24.3626 278.9 25.2928C279.456 26.2154 279.838 27.2693 280.048 28.4545ZM294.414 44.2966H291.488L299.949 21.2535H302.83L311.291 44.2966H308.365L301.48 24.899H301.299L294.414 44.2966ZM295.494 35.2954H307.285V37.7707H295.494V35.2954Z" fill="white"/>
</g>
<path d="M68.4491 25.2631V30.5557C68.0975 34.7723 67.1071 39.3084 64.6237 41.3039C59.4535 45.4635 59.02 39.5155 59.0089 32.1297C59.0181 32.0327 59.0181 31.935 59.0089 31.8379C58.9297 30.8319 57.9752 30.0955 57.0032 29.8194C56.0312 29.5432 54.9985 29.5966 54.0053 29.4217C52.1183 29.0913 50.4413 27.9416 49.2189 26.4698C47.9965 24.998 47.1939 23.2187 46.6057 21.3953C45.7929 18.876 45.1219 15.9075 42.7656 14.6953C39.3313 12.9344 34.7833 16.2389 31.4365 14.3096C29.7797 13.3523 28.8362 11.2721 26.9852 10.7879C26.1273 10.5597 25.2179 10.7253 24.3453 10.8938C23.2408 11.1046 22.127 11.3181 21.0464 11.6302C20.3433 11.8259 19.6569 12.0774 18.9938 12.3822C18.6256 12.5543 18.2712 12.7411 17.9251 12.9455C28.0189 5.26333 40.076 2.50932 48.0039 5.93435L61.9332 13.9764C63.9138 15.1209 65.5586 16.7663 66.7023 18.7474C67.846 20.7285 68.4484 22.9755 68.4491 25.2631Z" fill="url(#paint2_linear_42_693)"/>
<path d="M48.0038 5.93422C40.0759 2.50919 28.0188 5.26321 17.9232 12.95C16.8895 13.5786 15.9188 14.3054 15.0247 15.1204C14.3525 15.7128 13.7154 16.3437 13.1166 17.0101H13.1101V17.0156C11.1901 19.1529 9.71825 21.6842 9.47433 24.51C9.29024 26.6897 9.93456 29.3802 11.0069 31.2855C11.9909 33.0279 13.6551 34.4694 15.5991 34.8753C4.36946 34.3994 -0.849545 27.7233 0.694986 21.0813C1.70911 18.0826 3.78025 15.5557 6.52149 13.9726L27.7059 1.74521C29.6873 0.601883 31.9346 0 34.2223 0C36.5099 0 38.7572 0.601883 40.7387 1.74521L48.0038 5.93422Z" fill="white"/>
<path d="M40.9881 62.9668C35.0917 70.8017 22.1316 58.266 18.5197 50.9364C14.9078 43.6067 1.77287 33.6216 6.37017e-05 46.4731V25.2629C-0.00084808 23.8431 0.232077 22.4328 0.689488 21.0886C-0.855043 27.7307 4.36765 34.4068 15.5936 34.8817C15.7715 34.9188 15.9512 34.9468 16.132 34.9655C17.4833 35.11 18.8317 34.7492 20.1535 34.4298C21.4753 34.1104 22.856 33.825 24.1861 34.1168C25.5161 34.4086 26.7744 35.4321 26.9134 36.7861C26.9852 37.4811 26.7597 38.188 26.883 38.8774C27.1242 40.2231 28.5536 41 29.1842 42.2095C30.5833 44.8613 27.7215 48.1179 28.5969 50.9861C29.1722 52.873 31.1889 53.9656 32.0615 55.7384C32.9498 57.5388 32.5217 59.7627 33.3437 61.5962C34.0994 63.2843 35.9587 64.4128 37.807 64.3079C39.0018 64.2444 40.0695 63.7225 40.9881 62.9668Z" fill="url(#paint3_linear_42_693)"/>
<path d="M68.4491 30.5557V49.7334C68.4489 52.0214 67.8467 54.2691 66.7029 56.2507C65.5592 58.2323 63.9142 59.8781 61.9332 61.0229L40.7414 73.2549C38.76 74.3982 36.5127 75.0001 34.2251 75.0001C31.9374 75.0001 29.6901 74.3982 27.7087 73.2549L6.516 61.0229C4.53495 59.8781 2.88996 58.2323 1.74623 56.2507C0.6025 54.2691 0.000284353 52.0214 6.10352e-05 49.7334L6.10352e-05 46.4732C1.77287 33.6217 14.9115 43.605 18.5197 50.9365C22.1279 58.2679 35.088 70.8018 40.9881 62.9669C41.8939 62.2241 42.6551 61.2456 43.2479 60.2313C44.4371 58.1906 45.1863 55.8941 46.6158 54.0127C47.8124 52.4359 49.4481 51.208 50.5112 49.5374C51.381 48.1622 51.7999 45.9531 51.1224 44.4564C50.5563 43.2111 50.3787 41.8055 50.8297 40.5114C51.1054 39.7297 51.5003 38.9954 52.0005 38.3345C53.1299 36.8387 54.6947 35.7222 56.3442 34.8367C57.5058 34.2108 58.9086 33.3861 59.008 32.1343C59.0199 39.52 59.4535 45.468 64.6228 41.3085C67.1071 39.3102 68.0975 34.7741 68.4491 30.5557Z" fill="white"/>
<defs>
<linearGradient id="paint0_linear_42_693" x1="85.1265" y1="28.627" x2="130.983" y2="44.6305" gradientUnits="userSpaceOnUse">
<stop stop-color="#BA7802"/>
<stop offset="0.18" stop-color="#D19B2D"/>
<stop offset="0.39" stop-color="#E0C88D"/>
<stop offset="0.5" stop-color="#FFD462"/>
<stop offset="0.61" stop-color="#FFC334"/>
<stop offset="0.82" stop-color="#D19B2D"/>
<stop offset="1" stop-color="#BA7802"/>
</linearGradient>
<linearGradient id="paint1_linear_42_693" x1="88.9185" y1="17.7581" x2="134.777" y2="33.7616" gradientUnits="userSpaceOnUse">
<stop stop-color="#BA7802"/>
<stop offset="0.18" stop-color="#D19B2D"/>
<stop offset="0.39" stop-color="#E8D199"/>
<stop offset="0.5" stop-color="#A39571"/>
<stop offset="0.61" stop-color="#FFC53A"/>
<stop offset="0.82" stop-color="#D19B2D"/>
<stop offset="1" stop-color="#BA7802"/>
</linearGradient>
<linearGradient id="paint2_linear_42_693" x1="17.9233" y1="23.5796" x2="68.4491" y2="23.5796" gradientUnits="userSpaceOnUse">
<stop stop-color="#BA7802"/>
<stop offset="0.18" stop-color="#D19B2D"/>
<stop offset="0.39" stop-color="#EBC15D"/>
<stop offset="0.5" stop-color="#F5D06F"/>
<stop offset="0.61" stop-color="#EBC15D"/>
<stop offset="0.82" stop-color="#D19B2D"/>
<stop offset="1" stop-color="#BA7802"/>
</linearGradient>
<linearGradient id="paint3_linear_42_693" x1="6.37017e-05" y1="43.2708" x2="40.9881" y2="43.2708" gradientUnits="userSpaceOnUse">
<stop stop-color="#BA7802"/>
<stop offset="0.18" stop-color="#D19B2D"/>
<stop offset="0.39" stop-color="#EBC15D"/>
<stop offset="0.5" stop-color="#F5D06F"/>
<stop offset="0.61" stop-color="#EBC15D"/>
<stop offset="0.82" stop-color="#D19B2D"/>
<stop offset="1" stop-color="#BA7802"/>
</linearGradient>
<clipPath id="clip0_42_693">
<rect width="225.43" height="34.4567" fill="white" transform="translate(89.572 19.8027)"/>
</clipPath>
</defs>
</svg>
