<svg width="102" height="195" viewBox="0 0 102 195" fill="none" xmlns="http://www.w3.org/2000/svg">
<path d="M64.8219 77.0977C65.2773 78.1857 65.0749 77.7809 49.1351 93.5688C48.3255 94.4037 48.705 94.3784 47.8195 81.7025C47.8195 80.5134 57.94 72.5941 61.2038 68.6977C64.4677 64.8013 63.6074 65.4592 64.8219 77.0977Z" fill="#9EDEFF"/>
<path d="M37.0915 44.4592C39.0397 44.2062 33.524 48.6845 29.5011 54.7568C28.5903 56.0724 25.1493 60.6772 23.8084 60.8543C23.8084 60.8543 11.1578 61.2339 11.1578 61.158C10.8036 60.6772 17.559 54.2254 23.8084 47.0652C24.5927 45.876 24.5927 46.0785 37.0915 44.4592Z" fill="#9EDEFF"/>
<path d="M98.5987 7.74746C98.3503 11.3276 97.5655 14.8499 96.271 18.1968C90.1734 33.0739 90.7047 31.733 89.0348 28.7474C81.2927 14.9583 70.5649 13.5667 72.589 12.327C77.7203 8.54845 83.4875 5.72062 89.6167 3.97762C99.2059 1.4475 98.1432 3.97762 98.5987 7.74746Z" fill="#FF8E92"/>
<path d="M68.2628 44.0035C80.4833 43.371 79.6231 25.4831 67.8833 25.7614C54.9544 27.3301 57.3074 44.459 68.2628 44.0035ZM66.9219 28.2409C67.9072 28.0661 68.9188 28.1117 69.8842 28.374C70.8499 28.6362 71.7453 29.1089 72.5067 29.7581C73.2681 30.4075 73.8761 31.2172 74.2875 32.1293C74.699 33.0412 74.9036 34.033 74.8863 35.0334C74.8692 36.0339 74.6309 37.0181 74.1886 37.9154C73.7462 38.813 73.1108 39.6014 72.3277 40.2242C71.5446 40.847 70.6334 41.2887 69.6595 41.5179C68.6854 41.7471 67.6729 41.7579 66.6942 41.5493C65.1559 41.2217 63.779 40.3695 62.7999 39.1383C61.8207 37.9074 61.3 36.3742 61.3269 34.8015C61.3537 33.2286 61.9266 31.7141 62.9475 30.5174C63.9682 29.3206 65.3732 28.5158 66.9219 28.2409Z" fill="#000001"/>
<path d="M74.6389 32.9468C75.0363 34.2614 75.0253 35.6658 74.6072 36.9741C74.1891 38.2822 73.3837 39.4327 72.2974 40.273C71.211 41.1134 69.8951 41.604 68.524 41.6801C67.1527 41.756 65.7906 41.414 64.6179 40.6989C63.4454 39.9839 62.5177 38.9295 61.9575 37.6756C61.3973 36.4217 61.2309 35.0272 61.4808 33.6767C61.7304 32.3261 62.3844 31.0833 63.356 30.1126C64.3278 29.1419 65.5711 28.4893 66.922 28.2408C68.5613 27.9449 70.2521 28.2606 71.6744 29.128C73.0965 29.9952 74.1514 31.3541 74.6389 32.9468Z" fill="#9EDEFF"/>
<path d="M34.4604 77.6291C35.6749 76.3134 35.7002 76.3134 36.8135 77.6291C37.9465 78.9766 38.8059 80.5322 39.3436 82.2086C39.799 83.8279 38.0785 82.9676 37.5472 82.9929C35.0171 82.9929 36.0544 84.8905 36.687 85.1941C42.911 88.205 45.593 81.0447 45.7701 83.3977C46.0484 86.5857 46.0231 90.0519 46.1749 94.2266C46.1749 96.1242 47.7183 97.5664 49.0086 96.4025C50.299 95.2387 53.7399 91.7471 58.6231 86.9905C66.6183 79.1724 66.9472 79.4001 66.846 77.8568C65.6821 60.905 64.3159 65.2062 69.8821 59.1592C76.6122 51.8978 90.1231 37.1219 94.5002 28.2664C101.256 14.8821 103.938 0.78938 97.6375 0.0809467C89.2122 -0.855197 74.5628 6.50743 67.2761 12.9086C62.0503 17.3836 57.1704 22.2469 52.6773 27.4568C37.4966 44.1303 41.7978 41.4231 34.9665 42.3339C21.2279 44.105 26.0351 41.1447 8.95684 59.7664C6.85685 62.0688 8.34962 63.6375 9.71589 63.6375C13.8166 63.2091 17.9428 63.0739 22.0629 63.2327C21.3479 63.9725 20.8225 64.8745 20.5317 65.8613C20.241 66.8482 20.1933 67.8908 20.393 68.9001C20.9207 70.9055 21.9783 72.7318 23.4544 74.1881C24.2894 74.7194 24.8966 73.7833 24.5677 72.7965C24.4159 72.2905 21.8099 68.4447 22.5689 67.5086C23.3279 66.5724 25.2508 67.5086 30.8424 71.7592C32.3857 72.923 29.4255 74.0363 26.9207 77.7303C25.4785 79.9062 28.0339 81.0194 28.7171 81.5254C29.4002 82.0315 30.0327 82.1327 30.7159 81.652L34.4604 77.6291ZM22.0629 94.6568C4.35203 122.488 0.405047 151.635 14.0677 187.866C14.3207 188.499 15.1809 191.358 16.0412 190.776C18.7737 188.98 4.32673 166.209 9.08335 132.71C13.4605 101.893 33.8026 84.1062 34.3845 81.4242C34.6882 80.1086 34.2074 79.552 32.6388 80.1592C28.7626 84.7258 25.2276 89.5714 22.0629 94.6568ZM29.9568 68.217C25.0231 64.4977 23.0749 66.1423 24.0111 64.5483C24.4665 63.764 24.9219 62.8785 25.6556 63.2074C29.1725 63.511 30.387 64.852 34.6376 67.7363C35.3713 68.2423 34.7894 68.7989 33.6255 69.9375C32.9424 70.6965 33.0942 70.5447 30.058 68.217H29.9568ZM29.6532 79.6532C27.7809 78.3628 26.946 80.9941 49.4893 54.7315C50.6026 53.4664 52.0195 52.2014 52.7026 53.8965C52.7785 53.9725 29.7797 79.6026 29.6532 79.6532ZM43.1894 82.1833C40.9628 84.0809 42.9616 82.1833 39.1159 77.123C37.3448 74.7953 37.1171 74.7953 37.446 74.4158C39.4954 72.0122 39.0653 70.8736 43.9737 80.4628C44.4797 81.1459 43.9737 81.5254 43.2653 82.1327L43.1894 82.1833ZM49.0592 93.6194C48.2496 94.4543 48.6291 94.429 47.7436 81.7532C47.7436 80.564 57.864 72.6447 61.1279 68.7483C64.3918 64.852 63.658 65.5098 64.746 77.1483C65.2773 78.1857 65.0749 77.7809 49.1351 93.5688L49.0592 93.6194ZM72.6652 12.3267C77.7736 8.5564 83.5142 5.72878 89.617 3.97733C99.2062 1.44721 98.1435 3.97733 98.599 7.74719C98.3531 11.3275 97.5684 14.8503 96.2713 18.1966C90.1737 33.0737 90.705 31.7327 89.0351 28.7472C81.2929 14.958 70.5905 13.6171 72.6652 12.3267ZM69.4014 14.8568C72.6399 11.7954 91.0339 30.6954 88.3773 34.2375C80.6098 44.6616 53.5881 75.023 46.4532 79.4001C44.9672 76.5082 43.2762 73.7263 41.393 71.076C40.7604 70.1399 40.6845 70.7724 49.6159 60.8291C54.6761 55.0604 56.1183 54.4026 54.3472 52.2267C53.5881 51.2905 51.564 49.9243 50.2737 51.2399C48.9833 52.5556 48.2749 53.4411 41.9243 60.7279C36.0797 67.4074 37.2942 66.6483 35.2195 65.0797C26.8701 58.7797 25.3773 63.7387 30.7159 56.9327C42.6886 42.094 55.584 28.024 69.3255 14.8062L69.4014 14.8568ZM23.6315 46.9893C24.6689 45.7749 24.6689 45.9773 37.0918 44.4592C39.04 44.2062 33.5243 48.6845 29.5014 54.7568C28.5906 56.0725 25.1496 60.6773 23.8086 60.8544C23.8086 60.8544 11.1581 61.2339 11.1581 61.158C10.6267 60.7026 17.3821 54.2508 23.6315 46.9893Z" fill="#000001"/>
<path d="M14.1687 193.078C0.0253004 169.852 -3.54217 129.243 13.941 96.1493C17.9624 89.0983 22.4685 82.3351 27.4265 75.9084C29.7795 73.606 27.4265 72.3915 26.1361 73.859C11.4867 91.1903 0 116.289 0 138.908C0 172.053 8.2988 188.195 12.4482 193.154C14.4723 195.482 15.5096 195.28 14.1687 193.078Z" fill="#000001"/>
</svg>
