<svg width="239" height="57" viewBox="0 0 239 57" fill="none" xmlns="http://www.w3.org/2000/svg">
<g clip-path="url(#clip0_17_8)">
<path d="M81.3814 30.6051V33.4212H67.8483V32.8165C75.2751 26.8006 78.3001 23.6748 78.3001 21.4783C78.3001 19.4404 76.6416 17.9212 74.9165 17.9212C74.4129 17.9206 73.9142 18.0202 73.4495 18.2143C72.9848 18.4085 72.5635 18.6932 72.21 19.0519C71.8565 19.4106 71.578 19.8361 71.3908 20.3036C71.2035 20.7711 71.1112 21.2712 71.1193 21.7747L68.5315 21.1611C68.5315 17.7671 71.3475 15.1008 74.8275 15.1008C78.3713 15.1008 81.1458 18.0131 81.1458 21.3405C81.1458 24.4662 77.9637 27.9951 73.8745 30.6051H81.3814Z" fill="url(#paint0_linear_17_8)"/>
<path d="M103.832 15.369V15.8967L96.6012 33.4286H93.6148L99.81 18.1362H91.4865V15.369H103.832Z" fill="url(#paint1_linear_17_8)"/>
<path d="M121.433 30.6837H112.885L111.652 33.4286H108.583L117.075 15H117.243L125.734 33.4286H122.664L121.433 30.6837ZM120.334 28.253L117.164 21.1952L113.982 28.253H120.334Z" fill="url(#paint2_linear_17_8)"/>
<path d="M139.286 18.148V22.9767H146.119V25.7927H139.286V33.4449H136.455V15.3246H147.209V18.1406L139.286 18.148Z" fill="url(#paint3_linear_17_8)"/>
<path d="M168.104 33.4286L163.241 26.4375H161.018V33.4286H158.19L158.179 15.369H163.791C167.15 15.369 169.908 17.9642 169.908 21.173C169.908 23.5029 168.407 25.5304 166.335 26.2033L171.587 33.4286H168.104ZM163.858 24.0913C165.561 24.1031 166.984 22.7248 166.984 21.1108C166.984 19.4315 165.539 18.188 163.858 18.188H161.012V24.0854L163.858 24.0913Z" fill="url(#paint4_linear_17_8)"/>
<path d="M182.21 15.369H185.043V33.4286H182.21V15.369Z" fill="url(#paint5_linear_17_8)"/>
<path d="M67.8483 40.4256L68.1447 40.2033C68.2354 40.3577 68.3656 40.4851 68.5219 40.5724C68.6782 40.6596 68.855 40.7036 69.034 40.6998C69.489 40.6998 69.8595 40.4538 69.8595 40.107C69.8595 39.7172 69.3615 39.5289 68.9169 39.3659C68.4722 39.2029 68.0143 38.9909 68.0143 38.4529C68.0143 37.9149 68.4945 37.5192 69.1051 37.5192C69.3155 37.5074 69.5243 37.5613 69.7027 37.6733C69.8811 37.7854 70.0203 37.9501 70.1011 38.1447L69.8047 38.3433C69.7429 38.2087 69.6433 38.095 69.518 38.0161C69.3927 37.9371 69.2472 37.8963 69.0992 37.8986C68.7257 37.8986 68.407 38.1432 68.407 38.4544C68.407 38.7909 68.7879 38.9139 69.237 39.0858C69.7587 39.2977 70.2537 39.5393 70.2537 40.0981C70.2537 40.6983 69.6994 41.0881 69.031 41.0881C68.4589 41.0941 68.0143 40.7962 67.8483 40.4256Z" fill="url(#paint6_linear_17_8)"/>
<path d="M72.4976 39.6964V37.5696H72.8874V39.6935C72.8874 40.2789 73.2668 40.7043 73.7767 40.7043C74.2865 40.7043 74.6659 40.2759 74.6659 39.6935V37.5696H75.0602V39.6964C75.0602 40.5072 74.5118 41.1 73.7722 41.1C73.0327 41.1 72.4976 40.5072 72.4976 39.6964Z" fill="url(#paint7_linear_17_8)"/>
<path d="M77.5383 37.5696H78.641C79.3138 37.5696 79.8637 38.075 79.8637 38.6916C79.8637 39.2844 79.3138 39.7631 78.641 39.7631H77.9266V41.0466H77.5383V37.5696ZM79.465 38.6871C79.465 38.2855 79.0915 37.9579 78.635 37.9579H77.9266V39.3748H78.6365C79.0975 39.3793 79.4709 39.068 79.4709 38.6871H79.465Z" fill="url(#paint8_linear_17_8)"/>
<path d="M82.1091 37.5696H83.2103C83.8832 37.5696 84.4331 38.075 84.4331 38.6916C84.4331 39.2844 83.8832 39.7631 83.2103 39.7631H82.5004V41.0466H82.1091V37.5696ZM84.0359 38.6871C84.0359 38.2855 83.6624 37.9579 83.2044 37.9579H82.5004V39.3748H83.2103C83.6683 39.3793 84.0418 39.068 84.0418 38.6871H84.0359Z" fill="url(#paint9_linear_17_8)"/>
<path d="M86.4947 39.3066C86.493 38.9524 86.5965 38.6056 86.7922 38.3103C86.988 38.015 87.267 37.7845 87.594 37.6481C87.921 37.5117 88.2811 37.4756 88.6287 37.5443C88.9762 37.6129 89.2955 37.7834 89.546 38.0339C89.7965 38.2844 89.9669 38.6037 90.0356 38.9512C90.1043 39.2988 90.0682 39.6589 89.9318 39.9859C89.7954 40.3129 89.5649 40.5919 89.2696 40.7877C88.9743 40.9834 88.6275 41.0869 88.2732 41.0852C87.8027 41.0813 87.3526 40.8927 87.0199 40.56C86.6872 40.2273 86.4986 39.7771 86.4947 39.3066ZM89.6724 39.3066C89.6729 39.0317 89.592 38.7627 89.4397 38.5338C89.2874 38.3048 89.0707 38.1262 88.8169 38.0204C88.5631 37.9147 88.2836 37.8865 88.0138 37.9396C87.744 37.9927 87.496 38.1245 87.3012 38.3186C87.1064 38.5126 86.9734 38.76 86.9192 39.0296C86.865 39.2991 86.8919 39.5787 86.9966 39.833C87.1013 40.0872 87.279 40.3047 87.5073 40.458C87.7356 40.6112 88.0042 40.6933 88.2792 40.6939C88.6474 40.6931 89.0004 40.5469 89.2614 40.2871C89.5223 40.0273 89.67 39.6749 89.6724 39.3066Z" fill="url(#paint10_linear_17_8)"/>
<path d="M94.4018 41.0466L93.4325 39.6905H92.7818V41.0466H92.3906V37.5696H93.4177C93.7198 37.562 94.0126 37.6744 94.232 37.8822C94.4514 38.0899 94.5796 38.3762 94.5885 38.6782C94.5861 38.8963 94.5138 39.1077 94.3823 39.2817C94.2508 39.4556 94.067 39.5828 93.8579 39.6446L94.8953 41.0466H94.4018ZM93.428 39.36C93.5239 39.3662 93.6201 39.3527 93.7106 39.3203C93.801 39.2879 93.8839 39.2373 93.954 39.1716C94.0241 39.1059 94.08 39.0265 94.1182 38.9383C94.1565 38.8501 94.1762 38.7551 94.1762 38.659C94.1762 38.5629 94.1565 38.4678 94.1182 38.3796C94.08 38.2914 94.0241 38.212 93.954 38.1463C93.8839 38.0806 93.801 38.03 93.7106 37.9976C93.6201 37.9652 93.5239 37.9517 93.428 37.9579H92.7804V39.357L93.428 39.36Z" fill="url(#paint11_linear_17_8)"/>
<path d="M99.1282 37.9579H98.1204V41.0466H97.7276V37.9579H96.7168V37.5696H99.1282V37.9579Z" fill="url(#paint12_linear_17_8)"/>
<path d="M101.372 37.5696H101.765V41.0466H101.372V37.5696Z" fill="url(#paint13_linear_17_8)"/>
<path d="M107.062 37.5607V41.1H107.043L104.659 38.4544V41.0511H104.267V37.5162H104.287L106.669 40.1603V37.5607H107.062Z" fill="url(#paint14_linear_17_8)"/>
<path d="M112.829 39.4549C112.833 39.6722 112.794 39.8883 112.712 40.0899C112.631 40.2916 112.51 40.4747 112.356 40.6281C112.202 40.7816 112.018 40.9023 111.816 40.9829C111.614 41.0634 111.398 41.1023 111.181 41.097C110.707 41.099 110.252 40.9127 109.916 40.5792C109.579 40.2456 109.389 39.7922 109.387 39.3185C109.385 38.8448 109.572 38.3898 109.905 38.0535C110.239 37.7172 110.692 37.5271 111.166 37.5251C111.634 37.5443 112.081 37.7292 112.426 38.0469L112.205 38.3729C111.926 38.0996 111.557 37.9378 111.167 37.9179C110.981 37.9143 110.796 37.9481 110.623 38.0174C110.45 38.0867 110.293 38.19 110.16 38.3212C110.028 38.4524 109.923 38.6089 109.853 38.7813C109.782 38.9537 109.747 39.1386 109.749 39.3249C109.751 39.5113 109.79 39.6953 109.865 39.8661C109.939 40.0369 110.047 40.1909 110.183 40.3192C110.318 40.4474 110.477 40.5472 110.652 40.6126C110.827 40.678 111.012 40.7076 111.199 40.6998C111.879 40.6998 112.414 40.2448 112.414 39.6297C112.415 39.607 112.415 39.5843 112.414 39.5616H111.167V39.2073H112.82C112.827 39.2896 112.83 39.3723 112.829 39.4549Z" fill="url(#paint15_linear_17_8)"/>
<path d="M121.004 37.5607V41.1H120.985L118.602 38.4544V41.0511H118.209V37.5162H118.231L120.611 40.1603V37.5607H121.004Z" fill="url(#paint16_linear_17_8)"/>
<path d="M123.899 37.9564V39.0562H125.329V39.4549H123.899V40.6628H125.548V41.0526H123.506V37.5696H125.548V37.9564H123.899Z" fill="url(#paint17_linear_17_8)"/>
<path d="M128.808 39.2385L127.717 37.5696H128.17L129.037 38.9035L129.9 37.5696H130.356L129.264 39.2385L130.45 41.0466H130.005L129.043 39.5927L128.084 41.0466H127.64L128.808 39.2385Z" fill="url(#paint18_linear_17_8)"/>
<path d="M134.788 37.9579H133.782V41.0466H133.389V37.9579H132.376V37.5696H134.788V37.9579Z" fill="url(#paint19_linear_17_8)"/>
<path d="M143.36 39.4549C143.365 39.6721 143.325 39.888 143.244 40.0896C143.163 40.2911 143.042 40.4741 142.888 40.6276C142.734 40.781 142.551 40.9017 142.349 40.9824C142.147 41.0631 141.931 41.1021 141.714 41.097C141.479 41.0981 141.247 41.053 141.03 40.9642C140.813 40.8754 140.615 40.7448 140.449 40.5797C140.112 40.2463 139.922 39.7929 139.92 39.3192C139.918 38.8456 140.104 38.3905 140.437 38.054C140.77 37.7175 141.224 37.5273 141.697 37.5251C142.166 37.5443 142.612 37.7292 142.957 38.0469L142.738 38.3729C142.459 38.1 142.09 37.9382 141.7 37.9179C141.514 37.9144 141.329 37.9484 141.156 38.0178C140.983 38.0871 140.826 38.1905 140.694 38.3218C140.562 38.4531 140.457 38.6096 140.386 38.7821C140.316 38.9545 140.281 39.1394 140.283 39.3257C140.285 39.512 140.325 39.696 140.399 39.8667C140.474 40.0374 140.582 40.1915 140.717 40.3196C140.852 40.4478 141.012 40.5475 141.187 40.6128C141.361 40.6781 141.547 40.7077 141.733 40.6998C142.412 40.6998 142.947 40.2448 142.947 39.6297C142.949 39.607 142.949 39.5843 142.947 39.5616H141.7V39.2073H143.353C143.36 39.2896 143.363 39.3723 143.36 39.4549Z" fill="url(#paint20_linear_17_8)"/>
<path d="M146.071 37.9564V39.0562H147.501V39.4549H146.071V40.6628H147.722V41.0526H145.68V37.5696H147.722V37.9564H146.071Z" fill="url(#paint21_linear_17_8)"/>
<path d="M152.908 37.5607V41.1H152.889L150.506 38.4544V41.0511H150.113V37.5162H150.135L152.515 40.1603V37.5607H152.908Z" fill="url(#paint22_linear_17_8)"/>
<path d="M160.74 40.4745H158.841L158.586 41.0466H158.162L159.769 37.5162H159.812L161.421 41.0466H160.995L160.74 40.4745ZM160.591 40.1336L159.796 38.3462L158.998 40.1336H160.591Z" fill="url(#paint23_linear_17_8)"/>
<path d="M164.003 37.952V39.1095H165.432V39.5023H164.003V41.0511H163.61V37.5607H165.653V37.952H164.003Z" fill="url(#paint24_linear_17_8)"/>
<path d="M169.912 41.0466L168.942 39.6905H168.292V41.0466H167.9V37.5696H168.928C169.23 37.562 169.523 37.6744 169.743 37.8822C169.962 38.0899 170.09 38.3762 170.099 38.6782C170.097 38.8963 170.024 39.1077 169.893 39.2817C169.761 39.4556 169.578 39.5828 169.368 39.6446L170.406 41.0466H169.912ZM168.937 39.36C169.033 39.3662 169.129 39.3527 169.22 39.3203C169.31 39.2879 169.393 39.2373 169.463 39.1716C169.533 39.1059 169.589 39.0265 169.627 38.9383C169.666 38.8501 169.685 38.7551 169.685 38.659C169.685 38.5629 169.666 38.4678 169.627 38.3796C169.589 38.2914 169.533 38.212 169.463 38.1463C169.393 38.0806 169.31 38.03 169.22 37.9976C169.129 37.9652 169.033 37.9517 168.937 37.9579H168.29V39.357L168.937 39.36Z" fill="url(#paint25_linear_17_8)"/>
<path d="M172.568 37.5696H172.961V41.0466H172.568V37.5696Z" fill="url(#paint26_linear_17_8)"/>
<path d="M175.279 39.3066C175.283 38.8349 175.471 38.3833 175.803 38.0486C176.136 37.7139 176.586 37.5228 177.058 37.5162C177.514 37.5275 177.948 37.7181 178.266 38.0468L178.037 38.3551C177.911 38.2211 177.759 38.1136 177.591 38.0388C177.422 37.964 177.24 37.9234 177.056 37.9194C176.825 37.9155 176.597 37.9693 176.393 38.0757C176.188 38.1822 176.013 38.338 175.883 38.5291C175.754 38.7201 175.674 38.9405 175.651 39.1701C175.628 39.3998 175.663 39.6315 175.752 39.8444C175.841 40.0573 175.982 40.2446 176.162 40.3894C176.342 40.5342 176.555 40.6319 176.782 40.6737C177.009 40.7155 177.242 40.7001 177.462 40.6288C177.681 40.5575 177.88 40.4327 178.039 40.2656L178.266 40.5812C178.111 40.7423 177.926 40.8706 177.721 40.9585C177.516 41.0463 177.296 41.0919 177.073 41.0926C176.599 41.091 176.145 40.9026 175.809 40.5682C175.473 40.2338 175.283 39.7805 175.279 39.3066Z" fill="url(#paint27_linear_17_8)"/>
<path d="M182.771 40.4745H180.874L180.619 41.0466H180.192L181.8 37.5162H181.843L183.453 41.0466H183.026L182.771 40.4745ZM182.623 40.1336L181.823 38.3462L181.024 40.1336H182.623Z" fill="url(#paint28_linear_17_8)"/>
<path d="M188.437 37.5607V41.1H188.418L186.035 38.4544V41.0511H185.642V37.5162H185.664L188.048 40.1603V37.5607H188.437Z" fill="url(#paint29_linear_17_8)"/>
<path d="M194.001 37.5696H194.394V41.0466H194.001V37.5696Z" fill="url(#paint30_linear_17_8)"/>
<path d="M199.691 37.5607V41.1H199.672L197.289 38.4544V41.0511H196.896V37.5162H196.917L199.298 40.1603V37.5607H199.691Z" fill="url(#paint31_linear_17_8)"/>
<path d="M204.988 37.5607V41.1H204.969L202.586 38.4544V41.0511H202.193V37.5162H202.214L204.595 40.1603V37.5607H204.988Z" fill="url(#paint32_linear_17_8)"/>
<path d="M207.306 39.3066C207.304 38.9524 207.408 38.6056 207.604 38.3103C207.799 38.015 208.078 37.7845 208.405 37.6481C208.732 37.5117 209.092 37.4756 209.44 37.5443C209.788 37.6129 210.107 37.7834 210.357 38.0339C210.608 38.2844 210.778 38.6037 210.847 38.9512C210.916 39.2988 210.88 39.6589 210.743 39.9859C210.607 40.3129 210.376 40.5919 210.081 40.7877C209.786 40.9834 209.439 41.0869 209.085 41.0852C208.614 41.0813 208.164 40.8927 207.831 40.56C207.499 40.2273 207.31 39.7771 207.306 39.3066ZM210.484 39.3066C210.484 39.0317 210.403 38.7627 210.251 38.5338C210.099 38.3048 209.882 38.1262 209.628 38.0204C209.374 37.9147 209.095 37.8865 208.825 37.9396C208.555 37.9927 208.307 38.1245 208.113 38.3186C207.918 38.5126 207.785 38.76 207.731 39.0296C207.676 39.2991 207.703 39.5787 207.808 39.833C207.913 40.0872 208.09 40.3047 208.319 40.458C208.547 40.6112 208.816 40.6933 209.091 40.6939C209.459 40.6931 209.812 40.5469 210.073 40.2871C210.334 40.0273 210.481 39.6749 210.484 39.3066Z" fill="url(#paint33_linear_17_8)"/>
<path d="M215.781 37.5696L214.198 41.1H214.151L212.574 37.5696H212.99L214.176 40.2641L215.361 37.5696H215.781Z" fill="url(#paint34_linear_17_8)"/>
<path d="M219.373 40.4745H217.475L217.221 41.0466H216.801L218.407 37.5162H218.45L220.061 41.0466H219.634L219.373 40.4745ZM219.225 40.1336L218.431 38.3462L217.633 40.1336H219.225Z" fill="url(#paint35_linear_17_8)"/>
<path d="M223.967 37.9579H222.96V41.0466H222.567V37.9579H221.555V37.5696H223.967V37.9579Z" fill="url(#paint36_linear_17_8)"/>
<path d="M225.856 39.3066C225.854 38.9524 225.958 38.6056 226.154 38.3103C226.349 38.015 226.629 37.7845 226.956 37.6481C227.282 37.5117 227.643 37.4756 227.99 37.5443C228.338 37.6129 228.657 37.7834 228.908 38.0339C229.158 38.2844 229.328 38.6037 229.397 38.9512C229.466 39.2988 229.43 39.6589 229.293 39.9859C229.157 40.3129 228.926 40.5919 228.631 40.7877C228.336 40.9834 227.989 41.0869 227.635 41.0852C227.164 41.0813 226.714 40.8927 226.381 40.56C226.049 40.2273 225.86 39.7771 225.856 39.3066ZM229.032 39.3066C229.033 39.0317 228.952 38.7627 228.8 38.5338C228.647 38.3048 228.431 38.1262 228.177 38.0204C227.923 37.9147 227.644 37.8865 227.374 37.9396C227.104 37.9927 226.856 38.1245 226.661 38.3186C226.466 38.5126 226.333 38.76 226.279 39.0296C226.225 39.2991 226.252 39.5787 226.357 39.833C226.461 40.0872 226.639 40.3047 226.867 40.458C227.096 40.6112 227.364 40.6933 227.639 40.6939C228.007 40.6931 228.36 40.5469 228.621 40.2871C228.882 40.0273 229.03 39.6749 229.032 39.3066Z" fill="url(#paint37_linear_17_8)"/>
<path d="M233.763 41.0466L232.793 39.6905H232.143V41.0466H231.751V37.5696H232.776C233.078 37.562 233.371 37.6744 233.591 37.8821C233.811 38.0898 233.939 38.376 233.949 38.6782C233.946 38.8964 233.873 39.1079 233.741 39.2818C233.61 39.4557 233.426 39.5828 233.216 39.6446L234.254 41.0466H233.763ZM232.788 39.36C232.884 39.3662 232.98 39.3527 233.071 39.3203C233.161 39.2879 233.244 39.2373 233.314 39.1716C233.384 39.1059 233.44 39.0265 233.478 38.9383C233.517 38.8501 233.536 38.7551 233.536 38.659C233.536 38.5629 233.517 38.4678 233.478 38.3796C233.44 38.2914 233.384 38.212 233.314 38.1463C233.244 38.0806 233.161 38.03 233.071 37.9976C232.98 37.9652 232.884 37.9517 232.788 37.9579H232.14V39.357L232.788 39.36Z" fill="url(#paint38_linear_17_8)"/>
<path d="M236.2 40.4256L236.496 40.2033C236.587 40.3577 236.717 40.4851 236.873 40.5724C237.03 40.6596 237.207 40.7036 237.386 40.6998C237.841 40.6998 238.211 40.4538 238.211 40.107C238.211 39.7172 237.713 39.5289 237.268 39.3659C236.824 39.2029 236.366 38.9909 236.366 38.4529C236.366 37.9149 236.846 37.5192 237.457 37.5192C237.667 37.5074 237.876 37.5613 238.054 37.6733C238.233 37.7854 238.372 37.9501 238.453 38.1447L238.156 38.3433C238.094 38.2087 237.995 38.095 237.87 38.0161C237.744 37.9371 237.599 37.8963 237.451 37.8986C237.077 37.8986 236.759 38.1432 236.759 38.4544C236.759 38.7909 237.141 38.9139 237.589 39.0858C238.11 39.2977 238.605 39.5393 238.605 40.0981C238.605 40.6983 238.051 41.0881 237.383 41.0881C236.809 41.0941 236.364 40.7962 236.2 40.4256Z" fill="url(#paint39_linear_17_8)"/>
<path d="M212.225 21.0716H210.111C209.986 20.4636 209.768 19.9295 209.455 19.4693C209.148 19.0091 208.773 18.6227 208.33 18.3102C207.893 17.992 207.407 17.7534 206.873 17.5943C206.339 17.4352 205.782 17.3557 205.202 17.3557C204.145 17.3557 203.188 17.6227 202.33 18.1568C201.478 18.6909 200.799 19.4778 200.293 20.5176C199.793 21.5574 199.543 22.8329 199.543 24.3443C199.543 25.8557 199.793 27.1312 200.293 28.171C200.799 29.2108 201.478 29.9977 202.33 30.5318C203.188 31.0659 204.145 31.3329 205.202 31.3329C205.782 31.3329 206.339 31.2534 206.873 31.0943C207.407 30.9352 207.893 30.6994 208.33 30.3869C208.773 30.0687 209.148 29.6795 209.455 29.2193C209.768 28.7534 209.986 28.2193 210.111 27.617H212.225C212.066 28.5091 211.776 29.3074 211.356 30.0119C210.935 30.7164 210.413 31.3159 209.788 31.8102C209.163 32.2988 208.461 32.671 207.682 32.9267C206.91 33.1824 206.083 33.3102 205.202 33.3102C203.714 33.3102 202.39 32.9466 201.231 32.2193C200.072 31.492 199.16 30.4579 198.495 29.117C197.83 27.7761 197.498 26.1852 197.498 24.3443C197.498 22.5034 197.83 20.9125 198.495 19.5716C199.16 18.2307 200.072 17.1966 201.231 16.4693C202.39 15.742 203.714 15.3784 205.202 15.3784C206.083 15.3784 206.91 15.5062 207.682 15.7619C208.461 16.0176 209.163 16.3926 209.788 16.8869C210.413 17.3755 210.935 17.9721 211.356 18.6767C211.776 19.3755 212.066 20.1738 212.225 21.0716ZM223.106 33.0716H220.89L227.3 15.617H229.481L235.89 33.0716H233.675L228.459 18.3784H228.322L223.106 33.0716ZM223.925 26.2534H232.856V28.1284H223.925V26.2534Z" fill="#0F423A"/>
</g>
<path d="M51.8483 19.136V23.145C51.5819 26.339 50.8317 29.7749 48.9506 31.2864C45.0343 34.4372 44.7059 29.9317 44.6976 24.3372C44.7045 24.2637 44.7045 24.1897 44.6976 24.1162C44.6376 23.3541 43.9146 22.7964 43.1783 22.5872C42.442 22.378 41.6598 22.4185 40.9075 22.286C39.4782 22.0357 38.2078 21.1649 37.2819 20.05C36.356 18.9352 35.748 17.5874 35.3025 16.2062C34.6868 14.2979 34.1786 12.0494 32.3937 11.1312C29.7924 9.79737 26.3474 12.3004 23.8123 10.839C22.5573 10.1139 21.8426 8.53818 20.4405 8.17144C19.7907 7.99853 19.1018 8.12403 18.4409 8.25163C17.6042 8.41129 16.7606 8.57304 15.942 8.8094C15.4095 8.9577 14.8896 9.14818 14.3872 9.37903C14.1083 9.50941 13.8399 9.65095 13.5778 9.80573C21.2235 3.98672 30.3564 1.90063 36.3616 4.49499L46.9126 10.5866C48.4129 11.4535 49.6587 12.6999 50.5251 14.2005C51.3914 15.7011 51.8477 17.4032 51.8483 19.136Z" fill="url(#paint40_linear_17_8)"/>
<path d="M36.3615 4.495C30.3564 1.90064 21.2235 3.98673 13.5763 9.80923C12.7933 10.2854 12.0581 10.8359 11.3808 11.4533C10.8716 11.902 10.389 12.3799 9.93544 12.8847H9.93056V12.8889C8.47615 14.5078 7.3613 16.4252 7.17653 18.5656C7.03709 20.2167 7.52514 22.2546 8.33741 23.6979C9.08274 25.0177 10.3433 26.1096 11.8158 26.4171C3.30974 26.0566 -0.643509 20.9996 0.526429 15.9685C1.2946 13.6971 2.86343 11.783 4.93984 10.5838L20.9864 1.32195C22.4873 0.455909 24.1896 0 25.9224 0C27.6552 0 29.3575 0.455909 30.8584 1.32195L36.3615 4.495Z" fill="url(#paint41_linear_17_8)"/>
<path d="M31.0474 47.6956C26.5809 53.6303 16.7641 44.1349 14.0282 38.5829C11.2923 33.0309 1.34291 25.4674 6.3055e-05 35.202V19.136C-0.000627594 18.0605 0.175806 16.9922 0.522282 15.9741C-0.647656 21.0052 3.30838 26.0622 11.8117 26.4219C11.9465 26.45 12.0826 26.4712 12.2196 26.4854C13.2431 26.5948 14.2645 26.3215 15.2657 26.0796C16.2669 25.8377 17.3128 25.6215 18.3203 25.8425C19.3278 26.0636 20.2809 26.8389 20.3861 27.8645C20.4405 28.3909 20.2697 28.9264 20.3631 29.4486C20.5458 30.4679 21.6286 31.0564 22.1062 31.9725C23.166 33.9812 20.9983 36.448 21.6614 38.6205C22.0971 40.0498 23.6247 40.8774 24.2857 42.2203C24.9585 43.5841 24.6343 45.2685 25.2569 46.6574C25.8293 47.9361 27.2377 48.7909 28.6378 48.7114C29.5427 48.6633 30.3515 48.268 31.0474 47.6956Z" fill="url(#paint42_linear_17_8)"/>
<path d="M51.8483 23.145V37.6716C51.8481 39.4047 51.3919 41.1072 50.5256 42.6083C49.6593 44.1093 48.4132 45.3559 46.9126 46.223L30.8605 55.4884C29.3596 56.3545 27.6573 56.8104 25.9245 56.8104C24.1917 56.8104 22.4894 56.3545 20.9885 55.4884L4.9357 46.223C3.43511 45.3559 2.18908 44.1093 1.32274 42.6083C0.456392 41.1072 0.000230192 39.4047 6.10352e-05 37.6716L6.10352e-05 35.202C1.34291 25.4674 11.2951 33.0295 14.0282 38.5829C16.7613 44.1362 26.5782 53.6303 31.0474 47.6956C31.7334 47.1329 32.31 46.3918 32.759 45.6234C33.6598 44.0777 34.2274 42.3381 35.3102 40.913C36.2166 39.7187 37.4555 38.7886 38.2608 37.5231C38.9197 36.4814 39.2369 34.8081 38.7238 33.6744C38.295 32.7311 38.1604 31.6664 38.502 30.6861C38.7109 30.0941 39.01 29.5378 39.3889 29.0372C40.2444 27.9042 41.4297 27.0585 42.6791 26.3878C43.559 25.9137 44.6216 25.2889 44.6969 24.3407C44.7059 29.9352 45.0343 34.4407 48.9499 31.2899C50.8317 29.7763 51.5819 26.3404 51.8483 23.145Z" fill="url(#paint43_linear_17_8)"/>
<defs>
<linearGradient id="paint0_linear_17_8" x1="64.4809" y1="21.6843" x2="99.2157" y2="33.8065" gradientUnits="userSpaceOnUse">
<stop stop-color="#BA7802"/>
<stop offset="0.18" stop-color="#D19B2D"/>
<stop offset="0.39" stop-color="#8A6202"/>
<stop offset="0.5" stop-color="#956C00"/>
<stop offset="0.61" stop-color="#956900"/>
<stop offset="0.82" stop-color="#D19B2D"/>
<stop offset="1" stop-color="#BA7802"/>
</linearGradient>
<linearGradient id="paint1_linear_17_8" x1="67.3532" y1="13.4512" x2="102.089" y2="25.5734" gradientUnits="userSpaceOnUse">
<stop stop-color="#BA7802"/>
<stop offset="0.18" stop-color="#D19B2D"/>
<stop offset="0.39" stop-color="#805A00"/>
<stop offset="0.5" stop-color="#755500"/>
<stop offset="0.61" stop-color="#3D2B00"/>
<stop offset="0.82" stop-color="#D19B2D"/>
<stop offset="1" stop-color="#BA7802"/>
</linearGradient>
<linearGradient id="paint2_linear_17_8" x1="116.648" y1="46.1911" x2="118.047" y2="11.2221" gradientUnits="userSpaceOnUse">
<stop stop-color="#0A2D27"/>
<stop offset="0.64" stop-color="#0E3F38"/>
<stop offset="1" stop-color="#114C43"/>
</linearGradient>
<linearGradient id="paint3_linear_17_8" x1="140.617" y1="47.15" x2="142.015" y2="12.181" gradientUnits="userSpaceOnUse">
<stop stop-color="#0A2D27"/>
<stop offset="0.64" stop-color="#0E3F38"/>
<stop offset="1" stop-color="#114C43"/>
</linearGradient>
<linearGradient id="paint4_linear_17_8" x1="163.937" y1="48.0822" x2="165.334" y2="13.1133" gradientUnits="userSpaceOnUse">
<stop stop-color="#0A2D27"/>
<stop offset="0.64" stop-color="#0E3F38"/>
<stop offset="1" stop-color="#114C43"/>
</linearGradient>
<linearGradient id="paint5_linear_17_8" x1="182.648" y1="48.8307" x2="184.047" y2="13.8617" gradientUnits="userSpaceOnUse">
<stop stop-color="#0A2D27"/>
<stop offset="0.64" stop-color="#0E3F38"/>
<stop offset="1" stop-color="#114C43"/>
</linearGradient>
<linearGradient id="paint6_linear_17_8" x1="68.8902" y1="44.2806" x2="70.2893" y2="9.31164" gradientUnits="userSpaceOnUse">
<stop stop-color="#0A2D27"/>
<stop offset="0.64" stop-color="#0E3F38"/>
<stop offset="1" stop-color="#114C43"/>
</linearGradient>
<linearGradient id="paint7_linear_17_8" x1="73.5529" y1="44.4674" x2="74.952" y2="9.49839" gradientUnits="userSpaceOnUse">
<stop stop-color="#0A2D27"/>
<stop offset="0.64" stop-color="#0E3F38"/>
<stop offset="1" stop-color="#114C43"/>
</linearGradient>
<linearGradient id="paint8_linear_17_8" x1="78.4394" y1="44.663" x2="79.8385" y2="9.69403" gradientUnits="userSpaceOnUse">
<stop stop-color="#0A2D27"/>
<stop offset="0.64" stop-color="#0E3F38"/>
<stop offset="1" stop-color="#114C43"/>
</linearGradient>
<linearGradient id="paint9_linear_17_8" x1="83.0028" y1="44.8453" x2="84.402" y2="9.87633" gradientUnits="userSpaceOnUse">
<stop stop-color="#0A2D27"/>
<stop offset="0.64" stop-color="#0E3F38"/>
<stop offset="1" stop-color="#114C43"/>
</linearGradient>
<linearGradient id="paint10_linear_17_8" x1="88.0524" y1="45.0469" x2="89.4515" y2="10.0779" gradientUnits="userSpaceOnUse">
<stop stop-color="#0A2D27"/>
<stop offset="0.64" stop-color="#0E3F38"/>
<stop offset="1" stop-color="#114C43"/>
</linearGradient>
<linearGradient id="paint11_linear_17_8" x1="93.3999" y1="45.2603" x2="94.799" y2="10.2928" gradientUnits="userSpaceOnUse">
<stop stop-color="#0A2D27"/>
<stop offset="0.64" stop-color="#0E3F38"/>
<stop offset="1" stop-color="#114C43"/>
</linearGradient>
<linearGradient id="paint12_linear_17_8" x1="97.615" y1="45.4293" x2="99.0141" y2="10.4603" gradientUnits="userSpaceOnUse">
<stop stop-color="#0A2D27"/>
<stop offset="0.64" stop-color="#0E3F38"/>
<stop offset="1" stop-color="#114C43"/>
</linearGradient>
<linearGradient id="paint13_linear_17_8" x1="101.317" y1="45.5775" x2="102.716" y2="10.6085" gradientUnits="userSpaceOnUse">
<stop stop-color="#0A2D27"/>
<stop offset="0.64" stop-color="#0E3F38"/>
<stop offset="1" stop-color="#114C43"/>
</linearGradient>
<linearGradient id="paint14_linear_17_8" x1="105.406" y1="45.7405" x2="106.806" y2="10.773" gradientUnits="userSpaceOnUse">
<stop stop-color="#0A2D27"/>
<stop offset="0.64" stop-color="#0E3F38"/>
<stop offset="1" stop-color="#114C43"/>
</linearGradient>
<linearGradient id="paint15_linear_17_8" x1="110.841" y1="45.9584" x2="112.24" y2="10.9894" gradientUnits="userSpaceOnUse">
<stop stop-color="#0A2D27"/>
<stop offset="0.64" stop-color="#0E3F38"/>
<stop offset="1" stop-color="#114C43"/>
</linearGradient>
<linearGradient id="paint16_linear_17_8" x1="119.328" y1="46.2978" x2="120.726" y2="11.3288" gradientUnits="userSpaceOnUse">
<stop stop-color="#0A2D27"/>
<stop offset="0.64" stop-color="#0E3F38"/>
<stop offset="1" stop-color="#114C43"/>
</linearGradient>
<linearGradient id="paint17_linear_17_8" x1="124.24" y1="46.4949" x2="125.639" y2="11.5259" gradientUnits="userSpaceOnUse">
<stop stop-color="#0A2D27"/>
<stop offset="0.64" stop-color="#0E3F38"/>
<stop offset="1" stop-color="#114C43"/>
</linearGradient>
<linearGradient id="paint18_linear_17_8" x1="128.785" y1="46.6757" x2="130.184" y2="11.7082" gradientUnits="userSpaceOnUse">
<stop stop-color="#0A2D27"/>
<stop offset="0.64" stop-color="#0E3F38"/>
<stop offset="1" stop-color="#114C43"/>
</linearGradient>
<linearGradient id="paint19_linear_17_8" x1="133.218" y1="46.8536" x2="134.617" y2="11.8846" gradientUnits="userSpaceOnUse">
<stop stop-color="#0A2D27"/>
<stop offset="0.64" stop-color="#0E3F38"/>
<stop offset="1" stop-color="#114C43"/>
</linearGradient>
<linearGradient id="paint20_linear_17_8" x1="141.324" y1="47.1781" x2="142.723" y2="12.2092" gradientUnits="userSpaceOnUse">
<stop stop-color="#0A2D27"/>
<stop offset="0.64" stop-color="#0E3F38"/>
<stop offset="1" stop-color="#114C43"/>
</linearGradient>
<linearGradient id="paint21_linear_17_8" x1="146.378" y1="47.3797" x2="147.777" y2="12.4108" gradientUnits="userSpaceOnUse">
<stop stop-color="#0A2D27"/>
<stop offset="0.64" stop-color="#0E3F38"/>
<stop offset="1" stop-color="#114C43"/>
</linearGradient>
<linearGradient id="paint22_linear_17_8" x1="151.18" y1="47.5724" x2="152.579" y2="12.6034" gradientUnits="userSpaceOnUse">
<stop stop-color="#0A2D27"/>
<stop offset="0.64" stop-color="#0E3F38"/>
<stop offset="1" stop-color="#114C43"/>
</linearGradient>
<linearGradient id="paint23_linear_17_8" x1="159.517" y1="47.9058" x2="160.916" y2="12.9369" gradientUnits="userSpaceOnUse">
<stop stop-color="#0A2D27"/>
<stop offset="0.64" stop-color="#0E3F38"/>
<stop offset="1" stop-color="#114C43"/>
</linearGradient>
<linearGradient id="paint24_linear_17_8" x1="164.218" y1="48.0941" x2="165.617" y2="13.1251" gradientUnits="userSpaceOnUse">
<stop stop-color="#0A2D27"/>
<stop offset="0.64" stop-color="#0E3F38"/>
<stop offset="1" stop-color="#114C43"/>
</linearGradient>
<linearGradient id="paint25_linear_17_8" x1="168.789" y1="48.2764" x2="170.187" y2="13.3074" gradientUnits="userSpaceOnUse">
<stop stop-color="#0A2D27"/>
<stop offset="0.64" stop-color="#0E3F38"/>
<stop offset="1" stop-color="#114C43"/>
</linearGradient>
<linearGradient id="paint26_linear_17_8" x1="172.401" y1="48.4202" x2="173.8" y2="13.4527" gradientUnits="userSpaceOnUse">
<stop stop-color="#0A2D27"/>
<stop offset="0.64" stop-color="#0E3F38"/>
<stop offset="1" stop-color="#114C43"/>
</linearGradient>
<linearGradient id="paint27_linear_17_8" x1="176.423" y1="48.5817" x2="177.822" y2="13.6127" gradientUnits="userSpaceOnUse">
<stop stop-color="#0A2D27"/>
<stop offset="0.64" stop-color="#0E3F38"/>
<stop offset="1" stop-color="#114C43"/>
</linearGradient>
<linearGradient id="paint28_linear_17_8" x1="181.514" y1="48.7847" x2="182.914" y2="13.8173" gradientUnits="userSpaceOnUse">
<stop stop-color="#0A2D27"/>
<stop offset="0.64" stop-color="#0E3F38"/>
<stop offset="1" stop-color="#114C43"/>
</linearGradient>
<linearGradient id="paint29_linear_17_8" x1="186.653" y1="48.9908" x2="188.052" y2="14.0218" gradientUnits="userSpaceOnUse">
<stop stop-color="#0A2D27"/>
<stop offset="0.64" stop-color="#0E3F38"/>
<stop offset="1" stop-color="#114C43"/>
</linearGradient>
<linearGradient id="paint30_linear_17_8" x1="193.8" y1="49.2768" x2="195.197" y2="14.3079" gradientUnits="userSpaceOnUse">
<stop stop-color="#0A2D27"/>
<stop offset="0.64" stop-color="#0E3F38"/>
<stop offset="1" stop-color="#114C43"/>
</linearGradient>
<linearGradient id="paint31_linear_17_8" x1="197.887" y1="49.4398" x2="199.286" y2="14.4723" gradientUnits="userSpaceOnUse">
<stop stop-color="#0A2D27"/>
<stop offset="0.64" stop-color="#0E3F38"/>
<stop offset="1" stop-color="#114C43"/>
</linearGradient>
<linearGradient id="paint32_linear_17_8" x1="203.177" y1="49.6518" x2="204.575" y2="14.6828" gradientUnits="userSpaceOnUse">
<stop stop-color="#0A2D27"/>
<stop offset="0.64" stop-color="#0E3F38"/>
<stop offset="1" stop-color="#114C43"/>
</linearGradient>
<linearGradient id="paint33_linear_17_8" x1="208.671" y1="49.8711" x2="210.069" y2="14.9037" gradientUnits="userSpaceOnUse">
<stop stop-color="#0A2D27"/>
<stop offset="0.64" stop-color="#0E3F38"/>
<stop offset="1" stop-color="#114C43"/>
</linearGradient>
<linearGradient id="paint34_linear_17_8" x1="213.676" y1="50.0712" x2="215.075" y2="15.1037" gradientUnits="userSpaceOnUse">
<stop stop-color="#0A2D27"/>
<stop offset="0.64" stop-color="#0E3F38"/>
<stop offset="1" stop-color="#114C43"/>
</linearGradient>
<linearGradient id="paint35_linear_17_8" x1="218.057" y1="50.2476" x2="219.456" y2="15.2786" gradientUnits="userSpaceOnUse">
<stop stop-color="#0A2D27"/>
<stop offset="0.64" stop-color="#0E3F38"/>
<stop offset="1" stop-color="#114C43"/>
</linearGradient>
<linearGradient id="paint36_linear_17_8" x1="222.255" y1="50.4151" x2="223.654" y2="15.4461" gradientUnits="userSpaceOnUse">
<stop stop-color="#0A2D27"/>
<stop offset="0.64" stop-color="#0E3F38"/>
<stop offset="1" stop-color="#114C43"/>
</linearGradient>
<linearGradient id="paint37_linear_17_8" x1="227.192" y1="50.6122" x2="228.589" y2="15.6432" gradientUnits="userSpaceOnUse">
<stop stop-color="#0A2D27"/>
<stop offset="0.64" stop-color="#0E3F38"/>
<stop offset="1" stop-color="#114C43"/>
</linearGradient>
<linearGradient id="paint38_linear_17_8" x1="232.538" y1="50.8256" x2="233.937" y2="15.8581" gradientUnits="userSpaceOnUse">
<stop stop-color="#0A2D27"/>
<stop offset="0.64" stop-color="#0E3F38"/>
<stop offset="1" stop-color="#114C43"/>
</linearGradient>
<linearGradient id="paint39_linear_17_8" x1="236.974" y1="51.0035" x2="238.373" y2="16.0345" gradientUnits="userSpaceOnUse">
<stop stop-color="#0A2D27"/>
<stop offset="0.64" stop-color="#0E3F38"/>
<stop offset="1" stop-color="#114C43"/>
</linearGradient>
<linearGradient id="paint40_linear_17_8" x1="13.5764" y1="17.8607" x2="51.8483" y2="17.8607" gradientUnits="userSpaceOnUse">
<stop stop-color="#BA7802"/>
<stop offset="0.18" stop-color="#D19B2D"/>
<stop offset="0.39" stop-color="#EBC15D"/>
<stop offset="0.5" stop-color="#F5D06F"/>
<stop offset="0.61" stop-color="#EBC15D"/>
<stop offset="0.82" stop-color="#D19B2D"/>
<stop offset="1" stop-color="#BA7802"/>
</linearGradient>
<linearGradient id="paint41_linear_17_8" x1="0.320749" y1="13.2096" x2="36.3615" y2="13.2096" gradientUnits="userSpaceOnUse">
<stop stop-color="#114C43"/>
<stop offset="0.36" stop-color="#0E3F38"/>
<stop offset="1" stop-color="#0A2D27"/>
</linearGradient>
<linearGradient id="paint42_linear_17_8" x1="6.3055e-05" y1="32.7764" x2="31.0474" y2="32.7764" gradientUnits="userSpaceOnUse">
<stop stop-color="#BA7802"/>
<stop offset="0.18" stop-color="#D19B2D"/>
<stop offset="0.39" stop-color="#EBC15D"/>
<stop offset="0.5" stop-color="#F5D06F"/>
<stop offset="0.61" stop-color="#EBC15D"/>
<stop offset="0.82" stop-color="#D19B2D"/>
<stop offset="1" stop-color="#BA7802"/>
</linearGradient>
<linearGradient id="paint43_linear_17_8" x1="6.10352e-05" y1="39.978" x2="51.8483" y2="39.978" gradientUnits="userSpaceOnUse">
<stop stop-color="#0A2D27"/>
<stop offset="0.64" stop-color="#0E3F38"/>
<stop offset="1" stop-color="#114C43"/>
</linearGradient>
<clipPath id="clip0_17_8">
<rect width="170.757" height="26.1" fill="white" transform="translate(67.8482 15)"/>
</clipPath>
</defs>
</svg>
