<svg width="141" height="24" viewBox="0 0 141 24" fill="none" xmlns="http://www.w3.org/2000/svg">
<path d="M24 12C24 5.37258 18.6274 0 12 0C5.37258 0 0 5.37258 0 12C0 17.9895 4.3882 22.954 10.125 23.8542V15.4688H7.07812V12H10.125V9.35625C10.125 6.34875 11.9166 4.6875 14.6576 4.6875C15.9701 4.6875 17.3438 4.92188 17.3438 4.92188V7.875H15.8306C14.34 7.875 13.875 8.80008 13.875 9.75V12H17.2031L16.6711 15.4688H13.875V23.8542C19.6118 22.954 24 17.9895 24 12Z" fill="white"/>
<path d="M46.5502 21.7497C55.6045 21.7497 60.5583 14.2465 60.5583 7.74162C60.5583 7.53068 60.5536 7.31505 60.5442 7.10412C61.5079 6.40722 62.3395 5.54401 63 4.55505C62.1025 4.95436 61.1496 5.21514 60.1739 5.32849C61.2013 4.71266 61.9705 3.74523 62.3391 2.60552C61.3726 3.17831 60.3156 3.58237 59.2134 3.80037C58.4708 3.01132 57.489 2.48887 56.4197 2.31381C55.3504 2.13874 54.2532 2.32081 53.2977 2.83185C52.3423 3.3429 51.5818 4.15446 51.1338 5.14107C50.6859 6.12767 50.5754 7.23437 50.8195 8.29005C48.8625 8.19185 46.9479 7.68346 45.2 6.79785C43.452 5.91225 41.9097 4.66919 40.673 3.14927C40.0444 4.233 39.8521 5.5154 40.135 6.73585C40.418 7.95629 41.1551 9.0232 42.1964 9.71974C41.4146 9.69492 40.65 9.48444 39.9656 9.10568V9.16662C39.9649 10.3039 40.3581 11.4063 41.0783 12.2865C41.7985 13.1667 42.8013 13.7703 43.9162 13.9947C43.1921 14.1929 42.432 14.2218 41.6948 14.0791C42.0095 15.0572 42.6216 15.9126 43.4458 16.5261C44.27 17.1395 45.2651 17.4804 46.2923 17.501C44.5484 18.8709 42.3942 19.6139 40.1766 19.6104C39.7833 19.6098 39.3904 19.5857 39 19.5382C41.2529 20.9835 43.8735 21.7511 46.5502 21.7497Z" fill="white"/>
<path d="M90 2.16094C93.2063 2.16094 93.5859 2.175 94.8469 2.23125C96.0188 2.28281 96.6516 2.47969 97.0734 2.64375C97.6313 2.85938 98.0344 3.12188 98.4516 3.53906C98.8734 3.96094 99.1313 4.35938 99.3469 4.91719C99.5109 5.33906 99.7078 5.97656 99.7594 7.14375C99.8156 8.40937 99.8297 8.78906 99.8297 11.9906C99.8297 15.1969 99.8156 15.5766 99.7594 16.8375C99.7078 18.0094 99.5109 18.6422 99.3469 19.0641C99.1313 19.6219 98.8687 20.025 98.4516 20.4422C98.0297 20.8641 97.6313 21.1219 97.0734 21.3375C96.6516 21.5016 96.0141 21.6984 94.8469 21.75C93.5813 21.8062 93.2016 21.8203 90 21.8203C86.7938 21.8203 86.4141 21.8062 85.1531 21.75C83.9813 21.6984 83.3484 21.5016 82.9266 21.3375C82.3688 21.1219 81.9656 20.8594 81.5484 20.4422C81.1266 20.0203 80.8688 19.6219 80.6531 19.0641C80.4891 18.6422 80.2922 18.0047 80.2406 16.8375C80.1844 15.5719 80.1703 15.1922 80.1703 11.9906C80.1703 8.78438 80.1844 8.40469 80.2406 7.14375C80.2922 5.97187 80.4891 5.33906 80.6531 4.91719C80.8688 4.35938 81.1313 3.95625 81.5484 3.53906C81.9703 3.11719 82.3688 2.85938 82.9266 2.64375C83.3484 2.47969 83.9859 2.28281 85.1531 2.23125C86.4141 2.175 86.7938 2.16094 90 2.16094ZM90 0C86.7422 0 86.3344 0.0140625 85.0547 0.0703125C83.7797 0.126563 82.9031 0.332812 82.1438 0.628125C81.3516 0.9375 80.6813 1.34531 80.0156 2.01562C79.3453 2.68125 78.9375 3.35156 78.6281 4.13906C78.3328 4.90313 78.1266 5.775 78.0703 7.05C78.0141 8.33437 78 8.74219 78 12C78 15.2578 78.0141 15.6656 78.0703 16.9453C78.1266 18.2203 78.3328 19.0969 78.6281 19.8563C78.9375 20.6484 79.3453 21.3188 80.0156 21.9844C80.6813 22.65 81.3516 23.0625 82.1391 23.3672C82.9031 23.6625 83.775 23.8687 85.05 23.925C86.3297 23.9812 86.7375 23.9953 89.9953 23.9953C93.2531 23.9953 93.6609 23.9812 94.9406 23.925C96.2156 23.8687 97.0922 23.6625 97.8516 23.3672C98.6391 23.0625 99.3094 22.65 99.975 21.9844C100.641 21.3188 101.053 20.6484 101.358 19.8609C101.653 19.0969 101.859 18.225 101.916 16.95C101.972 15.6703 101.986 15.2625 101.986 12.0047C101.986 8.74688 101.972 8.33906 101.916 7.05938C101.859 5.78438 101.653 4.90781 101.358 4.14844C101.062 3.35156 100.655 2.68125 99.9844 2.01562C99.3188 1.35 98.6484 0.9375 97.8609 0.632812C97.0969 0.3375 96.225 0.13125 94.95 0.075C93.6656 0.0140625 93.2578 0 90 0Z" fill="white"/>
<path d="M90 5.83594C86.5969 5.83594 83.8359 8.59688 83.8359 12C83.8359 15.4031 86.5969 18.1641 90 18.1641C93.4031 18.1641 96.1641 15.4031 96.1641 12C96.1641 8.59688 93.4031 5.83594 90 5.83594ZM90 15.9984C87.7922 15.9984 86.0016 14.2078 86.0016 12C86.0016 9.79219 87.7922 8.00156 90 8.00156C92.2078 8.00156 93.9984 9.79219 93.9984 12C93.9984 14.2078 92.2078 15.9984 90 15.9984Z" fill="white"/>
<path d="M97.8469 5.59238C97.8469 6.38926 97.2 7.03145 96.4078 7.03145C95.6109 7.03145 94.9688 6.38457 94.9688 5.59238C94.9688 4.79551 95.6156 4.15332 96.4078 4.15332C97.2 4.15332 97.8469 4.8002 97.8469 5.59238Z" fill="white"/>
<path d="M139.21 0H118.758C117.779 0 116.986 0.773438 116.986 1.72969V22.2656C116.986 23.2219 117.779 24 118.758 24H139.21C140.189 24 140.986 23.2219 140.986 22.2703V1.72969C140.986 0.773438 140.189 0 139.21 0ZM124.107 20.4516H120.544V8.99531H124.107V20.4516ZM122.325 7.43438C121.182 7.43438 120.258 6.51094 120.258 5.37187C120.258 4.23281 121.182 3.30937 122.325 3.30937C123.464 3.30937 124.388 4.23281 124.388 5.37187C124.388 6.50625 123.464 7.43438 122.325 7.43438ZM137.438 20.4516H133.88V14.8828C133.88 13.5562 133.857 11.8453 132.029 11.8453C130.177 11.8453 129.896 13.2937 129.896 14.7891V20.4516H126.343V8.99531H129.755V10.5609H129.802C130.275 9.66094 131.438 8.70938 133.168 8.70938C136.772 8.70938 137.438 11.0813 137.438 14.1656V20.4516Z" fill="white"/>
</svg>
