<svg width="13" height="12" viewBox="0 0 13 12" fill="none" xmlns="http://www.w3.org/2000/svg">
<path d="M6.50186 11.1591L1.39107 6.0483C0.983399 5.64062 0.711618 5.16667 0.575728 4.62642C0.443152 4.08617 0.444809 3.54924 0.5807 3.01562C0.71659 2.47869 0.986713 2.01136 1.39107 1.61364C1.80537 1.20597 2.27767 0.935842 2.80797 0.803267C3.34159 0.667377 3.87355 0.667377 4.40385 0.803267C4.93747 0.939157 5.41143 1.20928 5.82573 1.61364L6.50186 2.26989L7.178 1.61364C7.59561 1.20928 8.06957 0.939157 8.59988 0.803267C9.13018 0.667377 9.66048 0.667377 10.1908 0.803267C10.7244 0.935842 11.1984 1.20597 11.6127 1.61364C12.017 2.01136 12.2871 2.47869 12.423 3.01562C12.5589 3.54924 12.5589 4.08617 12.423 4.62642C12.2905 5.16667 12.0203 5.64062 11.6127 6.0483L6.50186 11.1591Z" fill="#FF2424"/>
</svg>
