<svg width="766" height="282" viewBox="0 0 766 282" fill="none" xmlns="http://www.w3.org/2000/svg">
<mask id="mask0_305_584" style="mask-type:alpha" maskUnits="userSpaceOnUse" x="0" y="0" width="766" height="282">
<rect width="766" height="281.431" rx="35.267" fill="#0D3B34"/>
</mask>
<g mask="url(#mask0_305_584)">
<g opacity="0.15">
<path d="M355.845 294.194V195.336L381.155 213.464V298.679L368.503 302.938L355.845 294.194Z" fill="#2F2E41"/>
<path d="M226.433 240.757H-38.0869V321.342H226.433V240.757Z" fill="#D3A12D"/>
<g opacity="0.1">
<path d="M226.433 257.041H-12.5382V257.48H226.433V257.041Z" stroke="black" stroke-width="0.62727" stroke-miterlimit="10"/>
</g>
<g opacity="0.1">
<path d="M11.0284 257.26H10.5893V321.342H11.0284V257.26Z" stroke="black" stroke-width="0.62727" stroke-miterlimit="10"/>
</g>
<g opacity="0.1">
<path d="M36.8844 257.26H36.4453V321.342H36.8844V257.26Z" stroke="black" stroke-width="0.62727" stroke-miterlimit="10"/>
</g>
<g opacity="0.1">
<path d="M62.9852 257.26H62.5461V321.342H62.9852V257.26Z" stroke="black" stroke-width="0.62727" stroke-miterlimit="10"/>
</g>
<g opacity="0.1">
<path d="M89.0922 257.26H88.6531V321.342H89.0922V257.26Z" stroke="black" stroke-width="0.62727" stroke-miterlimit="10"/>
</g>
<g opacity="0.1">
<path d="M115.199 257.26H114.76V321.342H115.199V257.26Z" stroke="black" stroke-width="0.62727" stroke-miterlimit="10"/>
</g>
<g opacity="0.1">
<path d="M140.804 257.26H140.365V321.342H140.804V257.26Z" stroke="black" stroke-width="0.62727" stroke-miterlimit="10"/>
</g>
<path opacity="0.1" d="M0.515283 246.471H-8.52368V251.477H0.515283V246.471Z" stroke="black" stroke-width="0.62727" stroke-miterlimit="10"/>
<path opacity="0.1" d="M14.3216 246.471H5.28265V251.477H14.3216V246.471Z" stroke="black" stroke-width="0.62727" stroke-miterlimit="10"/>
<path opacity="0.1" d="M28.1278 246.471H19.0888V251.477H28.1278V246.471Z" stroke="black" stroke-width="0.62727" stroke-miterlimit="10"/>
<path opacity="0.1" d="M41.6204 246.471H32.5814V251.477H41.6204V246.471Z" stroke="black" stroke-width="0.62727" stroke-miterlimit="10"/>
<path opacity="0.1" d="M55.1756 246.471H46.1367V251.477H55.1756V246.471Z" stroke="black" stroke-width="0.62727" stroke-miterlimit="10"/>
<path opacity="0.1" d="M68.9819 246.471H59.9429V251.477H68.9819V246.471Z" stroke="black" stroke-width="0.62727" stroke-miterlimit="10"/>
<path opacity="0.1" d="M82.7881 246.471H73.7491V251.477H82.7881V246.471Z" stroke="black" stroke-width="0.62727" stroke-miterlimit="10"/>
<path opacity="0.1" d="M95.5907 246.471H86.5517V251.477H95.5907V246.471Z" stroke="black" stroke-width="0.62727" stroke-miterlimit="10"/>
<path opacity="0.1" d="M109.648 246.471H100.609V251.477H109.648V246.471Z" stroke="black" stroke-width="0.62727" stroke-miterlimit="10"/>
<path opacity="0.1" d="M123.14 246.471H114.101V251.477H123.14V246.471Z" stroke="black" stroke-width="0.62727" stroke-miterlimit="10"/>
<path opacity="0.1" d="M137.197 246.471H128.159V251.477H137.197V246.471Z" stroke="black" stroke-width="0.62727" stroke-miterlimit="10"/>
<path opacity="0.1" d="M150.502 246.471H141.463V251.477H150.502V246.471Z" stroke="black" stroke-width="0.62727" stroke-miterlimit="10"/>
<path opacity="0.1" d="M164.559 246.471H155.52V251.477H164.559V246.471Z" stroke="black" stroke-width="0.62727" stroke-miterlimit="10"/>
<path opacity="0.1" d="M178.234 246.471H169.195V251.477H178.234V246.471Z" stroke="black" stroke-width="0.62727" stroke-miterlimit="10"/>
<path opacity="0.1" d="M191.977 246.471H182.938V251.477H191.977V246.471Z" stroke="black" stroke-width="0.62727" stroke-miterlimit="10"/>
<path opacity="0.1" d="M204.78 246.471H195.741V251.477H204.78V246.471Z" stroke="black" stroke-width="0.62727" stroke-miterlimit="10"/>
<path opacity="0.1" d="M219.15 246.471H210.111V251.477H219.15V246.471Z" stroke="black" stroke-width="0.62727" stroke-miterlimit="10"/>
<path d="M80.0845 216.099H-12.5382V240.763H80.0845V216.099Z" fill="#D3A12D"/>
<path opacity="0.2" d="M15.576 216.099H-12.5382V240.763H15.576V216.099Z" fill="black"/>
<path opacity="0.1" d="M73.7491 222.372H23.6114V231.16H73.7491V222.372Z" stroke="black" stroke-width="0.62727" stroke-miterlimit="10"/>
<path d="M-47.3955 194.678V133.513H-2.49551V50.4308L63.7693 59.2126V216.099H-12.5381V240.757H-26.4886V203.278L-47.3955 194.678Z" fill="#D3A12D"/>
<g opacity="0.1">
<path d="M19.8792 216.099L19.6659 53.3665L20.105 53.4229L20.3183 216.099H19.8792Z" fill="black"/>
</g>
<g opacity="0.1">
<path d="M44.9449 216.099L44.7316 56.6907L45.1707 56.7471L45.384 216.099H44.9449Z" fill="black"/>
</g>
<path opacity="0.1" d="M13.6315 104.803H4.81213V119.707H13.6315V104.803Z" fill="black"/>
<path opacity="0.1" d="M36.9347 69.7883H28.1152V84.6923H36.9347V69.7883Z" fill="black"/>
<path opacity="0.1" d="M36.9347 117.605H28.1152V132.509H36.9347V117.605Z" fill="black"/>
<path opacity="0.1" d="M12.5965 144.747H3.7771V159.651H12.5965V144.747Z" fill="black"/>
<path opacity="0.1" d="M60.6957 110.153H50.7158V125.057H60.6957V110.153Z" fill="black"/>
<path opacity="0.1" d="M36.9347 165.428H28.316V180.332H36.9347V165.428Z" fill="black"/>
<path opacity="0.1" d="M14.1961 184.685H4.91248V197.431H14.1961V184.685Z" fill="black"/>
<path opacity="0.1" d="M58.8138 195.117H50.2767V209.318H58.8138V195.117Z" fill="black"/>
<path d="M111.141 240.757L111.53 85.5705L169.408 50.4308H277.781V321.342H226.433V240.757H111.141Z" fill="#D3A12D"/>
<path opacity="0.2" d="M169.194 240.757L169.408 50.4308L111.53 85.5705L111.141 240.757H169.194Z" fill="black"/>
<path d="M125.863 89.2085H125.424V240.757H125.863V89.2085Z" fill="#D3A12D"/>
<path d="M140.491 82.0576H140.052V240.763H140.491V82.0576Z" fill="#D3A12D"/>
<path d="M155.426 72.843H154.987V240.757H155.426V72.843Z" fill="#D3A12D"/>
<path d="M178.008 62.073H269.827" stroke="#3F3D56" stroke-width="0.62727" stroke-miterlimit="10"/>
<path opacity="0.1" d="M189.487 71.3943H179.3V96.1401H189.487V71.3943Z" fill="white"/>
<g opacity="0.1">
<path d="M215.857 96.3656H205.231V71.1744H215.857V96.3656ZM205.67 95.9265H215.418V71.6386H205.67V95.9265Z" stroke="black" stroke-width="0.62727" stroke-miterlimit="10"/>
</g>
<path opacity="0.2" d="M241.431 71.3943H231.244V96.1401H241.431V71.3943Z" fill="black"/>
<g opacity="0.1">
<path d="M267.438 96.3656H256.812V71.1744H267.438V96.3656ZM257.251 95.9265H266.999V71.6386H257.251V95.9265Z" stroke="black" stroke-width="0.62727" stroke-miterlimit="10"/>
</g>
<g opacity="0.1">
<path d="M189.706 137.973H179.08V112.781H189.706V137.973ZM179.519 137.502H189.267V113.221H179.519V137.502Z" stroke="black" stroke-width="0.62727" stroke-miterlimit="10"/>
</g>
<path opacity="0.3" d="M215.638 113.001H205.451V137.747H215.638V113.001Z" fill="white"/>
<g opacity="0.1">
<path d="M241.644 137.973H231.018V112.781H241.644V137.973ZM231.464 137.502H241.237V113.221H231.464V137.502Z" stroke="black" stroke-width="0.62727" stroke-miterlimit="10"/>
</g>
<path opacity="0.2" d="M267.218 113.001H257.031V137.747H267.218V113.001Z" fill="black"/>
<path opacity="0.2" d="M189.487 154.006H179.3V178.751H189.487V154.006Z" fill="black"/>
<path opacity="0.3" d="M189.487 195.004H179.3V219.75H189.487V195.004Z" fill="white"/>
<g opacity="0.1">
<path d="M215.857 219.976H205.231V194.785H215.857V219.976ZM205.67 219.537H215.418V195.211H205.67V219.537Z" stroke="black" stroke-width="0.62727" stroke-miterlimit="10"/>
</g>
<path opacity="0.2" d="M241.87 195.336H231.683V220.082H241.87V195.336Z" fill="black"/>
<g opacity="0.1">
<path d="M267.438 219.976H256.812V194.785H267.438V219.976ZM257.251 219.537H266.999V195.211H257.251V219.537Z" stroke="black" stroke-width="0.62727" stroke-miterlimit="10"/>
</g>
<path opacity="0.3" d="M241.87 236.498H231.683V261.244H241.87V236.498Z" fill="white"/>
<g opacity="0.1">
<path d="M242.083 302.637H231.464V277.446H242.083V302.637ZM231.903 302.198H241.644V277.885H231.903V302.198Z" stroke="black" stroke-width="0.62727" stroke-miterlimit="10"/>
</g>
<path opacity="0.2" d="M189.487 236.498H179.3V240.757H189.487V236.498Z" fill="black"/>
<g opacity="0.1">
<path d="M215.424 241.002H204.798V236.404H215.424V241.002ZM205.237 240.563H214.985V236.843H205.237V240.563Z" stroke="black" stroke-width="0.62727" stroke-miterlimit="10"/>
</g>
<path opacity="0.1" d="M267.218 278.186H257.031V302.932H267.218V278.186Z" fill="white"/>
<g opacity="0.1">
<path d="M268.209 261.564H257.546V236.379H268.209V261.564ZM258.022 261.124H267.77V236.818H258.003L258.022 261.124Z" stroke="black" stroke-width="0.62727" stroke-miterlimit="10"/>
</g>
<path opacity="0.1" d="M215.638 154.608H205.451V179.353H215.638V154.608Z" fill="white"/>
<g opacity="0.1">
<path d="M242.083 179.134H231.464V153.949H242.083V179.134ZM231.903 178.695H241.644V154.388H231.903V178.695Z" stroke="black" stroke-width="0.62727" stroke-miterlimit="10"/>
</g>
<path opacity="0.3" d="M267.218 154.169H257.031V178.915H267.218V154.169Z" fill="white"/>
<path d="M277.781 172.178L323.484 162.775L355.845 175.772V321.342H277.781V172.178Z" fill="#D3A12D"/>
<path opacity="0.1" d="M277.781 172.178L323.484 162.775L355.845 175.772V321.342H277.781V172.178Z" fill="white"/>
<path opacity="0.2" d="M323.541 321.342V162.775L355.845 175.772V321.342H323.541Z" fill="black"/>
<path d="M331.57 179.354H331.131V321.342H331.57V179.354Z" fill="#D3A12D"/>
<path d="M341.361 183.124H340.922V321.342H341.361V183.124Z" fill="#D3A12D"/>
<path d="M351.404 188.154H350.965V321.342H351.404V188.154Z" fill="#D3A12D"/>
<path opacity="0.3" d="M307.759 184.002V204.802L315.788 202.544V181.856L307.759 184.002Z" fill="white"/>
<path opacity="0.3" d="M285.666 208.145V227.641L293.701 225.885V206.558L285.666 208.145Z" fill="white"/>
<path opacity="0.3" d="M305.444 244.609V263.376L312.902 261.683V243.078L305.444 244.609Z" fill="white"/>
<path opacity="0.3" d="M285.076 264.813V285.626L292.535 283.75V263.113L285.076 264.813Z" fill="white"/>
<path d="M314.282 98.6239V164.983L323.541 162.775L355.845 175.772V195.336L381.155 213.465V100.129L331.35 91.4668L314.282 98.6239Z" fill="#D3A12D"/>
<g opacity="0.2">
<path d="M381.118 103.611L331.124 94.5844L314.37 101.585L314.201 101.183L331.074 94.1265L331.143 94.139L381.193 103.178L381.118 103.611Z" fill="black"/>
</g>
<g opacity="0.2">
<path d="M331.57 91.4668H331.131V165.917H331.57V91.4668Z" fill="black"/>
</g>
<g opacity="0.2">
<path d="M331.351 107.244L331.281 107.678L381.087 115.646L381.156 115.213L331.351 107.244Z" fill="black"/>
</g>
<g opacity="0.2">
<path d="M331.343 122.3L331.274 122.733L381.079 130.702L381.149 130.268L331.343 122.3Z" fill="black"/>
</g>
<g opacity="0.2">
<path d="M331.348 136.916L331.279 137.35L381.084 145.319L381.153 144.885L331.348 136.916Z" fill="black"/>
</g>
<g opacity="0.2">
<path d="M331.422 151.136L331.35 151.569L381.156 159.886L381.228 159.452L331.422 151.136Z" fill="black"/>
</g>
<g opacity="0.2">
<path d="M335.723 165.839L335.653 166.274L382.93 173.915L383 173.48L335.723 165.839Z" fill="black"/>
</g>
<g opacity="0.2">
<path d="M354.68 182.176L354.61 182.611L379.599 186.649L379.669 186.215L354.68 182.176Z" fill="black"/>
</g>
<g opacity="0.2">
<path d="M363.835 200.902L363.774 201.337L381.125 203.79L381.186 203.355L363.835 200.902Z" fill="black"/>
</g>
<path d="M355.77 182.063L322.92 169.913L277.825 179.567L277.737 179.14L322.951 169.462L323.007 169.48L355.927 181.649L355.77 182.063Z" fill="#D3A12D"/>
<path opacity="0.2" d="M229.946 259.243L241.72 294.451H300.589L276.64 260.322C276.404 259.988 276.092 259.716 275.73 259.528C275.368 259.34 274.965 259.242 274.557 259.243H229.946Z" fill="white"/>
</g>
<g opacity="0.15">
<path d="M383.029 195.945L449.814 181.605L502.511 203.278V321.342H383.029V195.945Z" fill="#D3A12D"/>
<path opacity="0.2" d="M449.814 181.605V321.342H502.511V203.278L449.814 181.605Z" fill="black"/>
<g opacity="0.1">
<path d="M449.787 193.703L383 206.734L383.084 207.165L449.871 194.134L449.787 193.703Z" fill="black"/>
</g>
<g opacity="0.2">
<path d="M402.725 203.641H402.286V321.342H402.725V203.641Z" fill="black"/>
</g>
<g opacity="0.2">
<path d="M418.664 200.511H418.225V321.342H418.664V200.511Z" fill="black"/>
</g>
<g opacity="0.2">
<path d="M434.98 197.519H434.54V321.342H434.98V197.519Z" fill="black"/>
</g>
<path d="M755.433 240.757H490.913V321.342H755.433V240.757Z" fill="#D3A12D"/>
<path opacity="0.1" d="M516.468 240.757H490.913V321.342H516.468V240.757Z" fill="black"/>
<g opacity="0.1">
<path d="M755.433 257.041H516.462V257.48H755.433V257.041Z" stroke="black" stroke-width="0.62727" stroke-miterlimit="10"/>
</g>
<g opacity="0.1">
<path d="M540.028 257.26H539.589V321.342H540.028V257.26Z" stroke="black" stroke-width="0.62727" stroke-miterlimit="10"/>
</g>
<g opacity="0.1">
<path d="M565.884 257.26H565.445V321.342H565.884V257.26Z" stroke="black" stroke-width="0.62727" stroke-miterlimit="10"/>
</g>
<g opacity="0.1">
<path d="M591.985 257.26H591.546V321.342H591.985V257.26Z" stroke="black" stroke-width="0.62727" stroke-miterlimit="10"/>
</g>
<g opacity="0.1">
<path d="M618.092 257.26H617.653V321.342H618.092V257.26Z" stroke="black" stroke-width="0.62727" stroke-miterlimit="10"/>
</g>
<g opacity="0.1">
<path d="M644.199 257.26H643.76V321.342H644.199V257.26Z" stroke="black" stroke-width="0.62727" stroke-miterlimit="10"/>
</g>
<g opacity="0.1">
<path d="M669.804 257.26H669.365V321.342H669.804V257.26Z" stroke="black" stroke-width="0.62727" stroke-miterlimit="10"/>
</g>
<path opacity="0.1" d="M529.515 246.471H520.476V251.477H529.515V246.471Z" stroke="black" stroke-width="0.62727" stroke-miterlimit="10"/>
<path opacity="0.1" d="M543.322 246.471H534.283V251.477H543.322V246.471Z" stroke="black" stroke-width="0.62727" stroke-miterlimit="10"/>
<path opacity="0.1" d="M557.128 246.471H548.089V251.477H557.128V246.471Z" stroke="black" stroke-width="0.62727" stroke-miterlimit="10"/>
<path opacity="0.1" d="M570.62 246.471H561.581V251.477H570.62V246.471Z" stroke="black" stroke-width="0.62727" stroke-miterlimit="10"/>
<path opacity="0.1" d="M584.176 246.471H575.137V251.477H584.176V246.471Z" stroke="black" stroke-width="0.62727" stroke-miterlimit="10"/>
<path opacity="0.1" d="M597.982 246.471H588.943V251.477H597.982V246.471Z" stroke="black" stroke-width="0.62727" stroke-miterlimit="10"/>
<path opacity="0.1" d="M611.788 246.471H602.749V251.477H611.788V246.471Z" stroke="black" stroke-width="0.62727" stroke-miterlimit="10"/>
<path opacity="0.1" d="M624.591 246.471H615.552V251.477H624.591V246.471Z" stroke="black" stroke-width="0.62727" stroke-miterlimit="10"/>
<path opacity="0.1" d="M638.648 246.471H629.609V251.477H638.648V246.471Z" stroke="black" stroke-width="0.62727" stroke-miterlimit="10"/>
<path opacity="0.1" d="M652.14 246.471H643.101V251.477H652.14V246.471Z" stroke="black" stroke-width="0.62727" stroke-miterlimit="10"/>
<path opacity="0.1" d="M666.197 246.471H657.159V251.477H666.197V246.471Z" stroke="black" stroke-width="0.62727" stroke-miterlimit="10"/>
<path opacity="0.1" d="M679.502 246.471H670.463V251.477H679.502V246.471Z" stroke="black" stroke-width="0.62727" stroke-miterlimit="10"/>
<path opacity="0.1" d="M693.559 246.471H684.52V251.477H693.559V246.471Z" stroke="black" stroke-width="0.62727" stroke-miterlimit="10"/>
<path opacity="0.1" d="M707.234 246.471H698.195V251.477H707.234V246.471Z" stroke="black" stroke-width="0.62727" stroke-miterlimit="10"/>
<path opacity="0.1" d="M720.977 246.471H711.938V251.477H720.977V246.471Z" stroke="black" stroke-width="0.62727" stroke-miterlimit="10"/>
<path opacity="0.1" d="M733.78 246.471H724.741V251.477H733.78V246.471Z" stroke="black" stroke-width="0.62727" stroke-miterlimit="10"/>
<path opacity="0.1" d="M748.15 246.471H739.111V251.477H748.15V246.471Z" stroke="black" stroke-width="0.62727" stroke-miterlimit="10"/>
<path d="M609.085 216.099H516.462V240.763H609.085V216.099Z" fill="#D3A12D"/>
<path opacity="0.2" d="M544.576 216.099H516.462V240.763H544.576V216.099Z" fill="black"/>
<path opacity="0.1" d="M602.749 222.372H552.611V231.16H602.749V222.372Z" stroke="black" stroke-width="0.62727" stroke-miterlimit="10"/>
<path d="M481.605 194.678V133.513H526.505V50.4308L592.769 59.2126V216.099H516.462V240.757H502.511V203.278L481.605 194.678Z" fill="#D3A12D"/>
<g opacity="0.1">
<path d="M548.879 216.099L548.666 53.3665L549.105 53.4229L549.318 216.099H548.879Z" fill="black"/>
</g>
<g opacity="0.1">
<path d="M573.945 216.099L573.732 56.6907L574.171 56.7471L574.384 216.099H573.945Z" fill="black"/>
</g>
<path d="M489.652 133.513V71.5384L526.504 50.4308V133.513H489.652Z" fill="#D3A12D"/>
<path opacity="0.1" d="M489.652 133.513V71.5384L526.504 50.4308V133.513H489.652Z" fill="white"/>
<path d="M462.893 186.981V144.276L481.604 133.512V194.678L462.893 186.981Z" fill="#D3A12D"/>
<path opacity="0.1" d="M462.893 186.981V144.276L481.604 133.512V194.678L462.893 186.981Z" fill="white"/>
<path opacity="0.1" d="M503.283 144.747H493.523V159.651H503.283V144.747Z" fill="black"/>
<path opacity="0.1" d="M542.632 104.803H533.812V119.707H542.632V104.803Z" fill="black"/>
<path opacity="0.1" d="M565.935 69.7883H557.115V84.6923H565.935V69.7883Z" fill="black"/>
<path opacity="0.1" d="M565.935 117.605H557.115V132.509H565.935V117.605Z" fill="black"/>
<path opacity="0.1" d="M541.597 144.747H532.777V159.651H541.597V144.747Z" fill="black"/>
<path opacity="0.1" d="M589.696 110.153H579.716V125.057H589.696V110.153Z" fill="black"/>
<path opacity="0.1" d="M565.935 165.428H557.316V180.332H565.935V165.428Z" fill="black"/>
<path opacity="0.1" d="M522.07 160.529H513.451V175.433H522.07V160.529Z" fill="black"/>
<path opacity="0.1" d="M522.07 192.997H513.451V205.743H522.07V192.997Z" fill="black"/>
<path opacity="0.1" d="M543.196 184.685H533.912V197.431H543.196V184.685Z" fill="black"/>
<path opacity="0.1" d="M587.814 195.117H579.277V209.318H587.814V195.117Z" fill="black"/>
<path opacity="0.1" d="M502.712 175.433H494.093V190.337H502.712V175.433Z" fill="black"/>
<path d="M640.141 240.757L640.53 85.5705L698.408 50.4308H806.781V321.342H755.433V240.757H640.141Z" fill="#D3A12D"/>
<path opacity="0.2" d="M698.194 240.757L698.408 50.4308L640.53 85.5705L640.141 240.757H698.194Z" fill="black"/>
<path d="M654.863 89.2085H654.424V240.757H654.863V89.2085Z" fill="#D3A12D"/>
<path d="M669.491 82.0576H669.052V240.763H669.491V82.0576Z" fill="#D3A12D"/>
<path d="M684.426 72.843H683.987V240.757H684.426V72.843Z" fill="#D3A12D"/>
<path d="M707.008 62.073H798.827" stroke="#3F3D56" stroke-width="0.62727" stroke-miterlimit="10"/>
<path opacity="0.1" d="M718.487 71.3943H708.3V96.1401H718.487V71.3943Z" fill="white"/>
<g opacity="0.1">
<path d="M744.857 96.3656H734.231V71.1744H744.857V96.3656ZM734.67 95.9265H744.418V71.6386H734.67V95.9265Z" stroke="black" stroke-width="0.62727" stroke-miterlimit="10"/>
</g>
<path opacity="0.2" d="M770.431 71.3943H760.244V96.1401H770.431V71.3943Z" fill="black"/>
<g opacity="0.1">
<path d="M718.706 137.973H708.08V112.781H718.706V137.973ZM708.519 137.502H718.267V113.221H708.519V137.502Z" stroke="black" stroke-width="0.62727" stroke-miterlimit="10"/>
</g>
<path opacity="0.3" d="M744.638 113.001H734.451V137.747H744.638V113.001Z" fill="white"/>
<g opacity="0.1">
<path d="M770.644 137.973H760.018V112.781H770.644V137.973ZM760.464 137.502H770.236V113.221H760.464V137.502Z" stroke="black" stroke-width="0.62727" stroke-miterlimit="10"/>
</g>
<path opacity="0.2" d="M718.487 154.006H708.3V178.751H718.487V154.006Z" fill="black"/>
<path opacity="0.3" d="M718.487 195.004H708.3V219.75H718.487V195.004Z" fill="white"/>
<g opacity="0.1">
<path d="M744.857 219.976H734.231V194.785H744.857V219.976ZM734.67 219.537H744.418V195.211H734.67V219.537Z" stroke="black" stroke-width="0.62727" stroke-miterlimit="10"/>
</g>
<path opacity="0.2" d="M770.87 195.336H760.683V220.082H770.87V195.336Z" fill="black"/>
<path opacity="0.3" d="M770.87 236.498H760.683V261.244H770.87V236.498Z" fill="white"/>
<g opacity="0.1">
<path d="M771.083 302.637H760.464V277.446H771.083V302.637ZM760.903 302.198H770.644V277.885H760.903V302.198Z" stroke="black" stroke-width="0.62727" stroke-miterlimit="10"/>
</g>
<path opacity="0.2" d="M718.487 236.498H708.3V240.757H718.487V236.498Z" fill="black"/>
<g opacity="0.1">
<path d="M744.424 241.002H733.798V236.404H744.424V241.002ZM734.237 240.563H743.985V236.843H734.237V240.563Z" stroke="black" stroke-width="0.62727" stroke-miterlimit="10"/>
</g>
<path opacity="0.1" d="M744.638 154.608H734.451V179.353H744.638V154.608Z" fill="white"/>
<g opacity="0.1">
<path d="M771.083 179.134H760.464V153.949H771.083V179.134ZM760.903 178.695H770.644V154.388H760.903V178.695Z" stroke="black" stroke-width="0.62727" stroke-miterlimit="10"/>
</g>
<g opacity="0.1">
<path d="M489.652 84.0147V83.5191L526.504 64.2494V64.7449L489.652 84.0147Z" fill="black"/>
</g>
<g opacity="0.1">
<path d="M489.652 96.7608V96.2653L526.504 76.9893V77.4848L489.652 96.7608Z" fill="black"/>
</g>
<g opacity="0.1">
<path d="M489.652 111.495V111L526.504 91.7238V92.2193L489.652 111.495Z" fill="black"/>
</g>
<g opacity="0.1">
<path d="M489.652 126.343V125.847L526.504 106.571V107.067L489.652 126.343Z" fill="black"/>
</g>
<g opacity="0.1">
<path d="M462.893 153.083V152.594L481.604 143.561V144.051L462.893 153.083Z" fill="black"/>
</g>
<g opacity="0.1">
<path d="M462.893 161.476V160.987L481.604 151.954V152.437L462.893 161.476Z" fill="black"/>
</g>
<g opacity="0.1">
<path d="M462.893 170.189V169.7L481.604 160.661V161.15L462.893 170.189Z" fill="black"/>
</g>
<g opacity="0.1">
<path d="M462.893 179.222V178.739L481.604 169.7V170.189L462.893 179.222Z" fill="black"/>
</g>
<g opacity="0.1">
<path d="M464.543 187.665L463.997 187.439L481.605 178.933V179.423L464.543 187.665Z" fill="black"/>
</g>
<path opacity="0.2" d="M758.946 259.243L770.72 294.451H829.589L805.64 260.322C805.404 259.988 805.092 259.716 804.73 259.528C804.368 259.34 803.965 259.242 803.557 259.243H758.946Z" fill="white"/>
</g>
</g>
</svg>
