<svg width="406" height="117" viewBox="0 0 406 117" fill="none" xmlns="http://www.w3.org/2000/svg">
<path d="M21.8686 32.6085C20.749 32.8534 20.1542 33.8681 20.4691 34.9877C20.749 36.0373 21.7287 36.5971 22.7783 36.3172C23.7579 36.0723 24.4227 34.9877 24.1778 34.008C23.9329 33.0284 22.8832 32.3636 21.8686 32.6085Z" fill="#455D5F"/>
<path d="M95.8654 42.4747C95.8654 16.3741 76.9373 0 46.7432 0H0V115.983H28.8296V86.4888C28.8646 84.3546 29.3194 82.2204 29.7743 80.0512C30.9988 74.2432 30.649 68.5403 27.745 63.2572C25.2959 58.7788 21.4823 56.0498 16.514 54.9302C14.6597 54.5104 12.7704 54.1255 10.951 53.6007C4.61833 51.7813 1.67939 47.0231 0.279895 41.0052C-0.0349917 39.6057 1.01463 39.2908 1.99427 39.0459C4.93322 38.3812 7.83717 37.6464 10.8111 37.2266C14.2399 36.7717 16.654 35.0924 18.3334 32.0834C19.2781 30.4041 20.4676 28.7946 21.7622 27.3251C24.5262 24.1763 28.0949 22.5669 32.4683 22.4969C32.5033 19.9778 32.5383 17.6336 32.5733 15.2545C32.5733 14.7997 32.5383 14.3448 32.6432 13.89C32.8532 13.0503 33.308 12.8404 33.9728 13.5051C34.1477 13.6801 34.2527 13.855 34.3926 14.0299C41.67 24.3162 48.4226 34.8474 53.6707 46.3583C56.7146 53.0059 59.1287 59.8284 60.0733 67.1058C60.913 73.5785 60.4582 79.8063 57.3093 85.4392C81.3807 81.4157 95.8654 65.7063 95.8654 42.4747Z" fill="#455D5F"/>
<path d="M165.315 85.7195H117.662C118.047 90.4428 119.516 94.1515 122.105 96.8455C124.695 99.5395 128.088 100.869 132.252 100.869C137.815 100.869 142.153 98.315 145.302 93.2418L164.615 94.6413C159.507 108.916 148.626 116.019 131.972 116.019C122.805 116.019 115.353 113.709 109.615 109.056C101.358 102.374 97.2644 92.787 97.2644 80.2965C97.2644 69.6603 100.518 60.9484 107.061 54.1958C113.604 47.4433 122.001 44.0495 132.287 44.0495C142.573 44.0495 150.655 47.4433 156.603 54.2658C162.516 61.0884 165.49 70.395 165.49 82.2557C165.455 83.5503 165.385 84.7049 165.315 85.7195ZM117.522 71.2697H145.302C143.553 63.1176 139.004 59.0591 131.692 59.0591C124.17 59.0591 119.446 63.1176 117.522 71.2697Z" fill="#455D5F"/>
<path d="M200.582 47.0931H212.512V61.8228H200.582V93.7663C200.582 96.2504 201.142 97.9997 202.261 98.9794C203.381 99.959 205.375 100.449 208.244 100.449C209.434 100.449 211.218 100.309 213.527 100.029V114.759C206.844 115.598 202.191 116.018 199.497 116.018C192.29 116.018 187.286 114.164 184.488 110.455C182.353 107.691 181.304 103.038 181.304 96.5653V61.8228H171.577V47.0931H181.304V26.9404H200.617V47.0931H200.582Z" fill="#455D5F"/>
<path d="M224.2 48.3527H243.373L243.093 57.2395C247.432 50.0321 253.869 46.3934 262.406 46.3934C271.188 46.3934 277.276 50.347 280.6 58.1841C285.603 50.312 292.601 46.3934 301.592 46.3934C308.45 46.3934 313.803 48.4926 317.652 52.6561C321.5 56.8196 323.424 62.5576 323.424 69.8699V115.983H304.251V78.092C304.251 72.9138 303.412 69.2051 301.767 66.966C300.088 64.7268 297.674 63.6422 294.56 63.6422C291.026 63.6422 288.297 64.8317 286.303 67.2459C284.309 69.66 283.329 73.2637 283.329 78.092V116.018H264.296V77.5322C264.296 68.3655 260.867 63.7821 254.009 63.7821C246.977 63.7821 243.443 68.9253 243.443 79.2115V116.018H224.27V48.3527H224.2Z" fill="#455D5F"/>
<path d="M405.643 85.7195H357.99C358.375 90.4428 359.845 94.1515 362.434 96.8455C365.023 99.5395 368.417 100.869 372.58 100.869C378.143 100.869 382.482 98.315 385.63 93.2418L404.944 94.6413C399.835 108.916 388.954 116.019 372.3 116.019C363.134 116.019 355.681 113.709 349.943 109.056C341.686 102.374 337.593 92.787 337.593 80.2965C337.593 69.6603 340.847 60.9484 347.389 54.1958C353.932 47.4433 362.329 44.0495 372.615 44.0495C382.901 44.0495 390.984 47.4433 396.931 54.2658C402.844 61.0884 405.818 70.395 405.818 82.2557C405.783 83.5503 405.713 84.7049 405.643 85.7195ZM357.85 71.2697H385.63C383.881 63.1176 379.333 59.0591 372.02 59.0591C364.498 59.0591 359.775 63.1176 357.85 71.2697Z" fill="#455D5F"/>
</svg>
