<svg width="308" height="17" viewBox="0 0 308 17" fill="none" xmlns="http://www.w3.org/2000/svg">
<path d="M67.0424 3.41992C96.2781 2.95394 125.53 2.65439 154.781 2.52125C184.033 2.38812 213.014 2.4325 242.122 2.64329C258.658 2.76534 275.21 2.93175 291.745 3.15365L293.989 0.879251C256.239 1.33413 218.505 1.89996 180.77 2.57673C143.036 3.2535 105.302 4.04122 67.5676 4.95097C46.3848 5.46133 25.218 5.99387 4.0352 6.57079C2.79384 6.60407 0.931792 6.82596 0.231535 7.66916C-0.420977 8.45687 0.788558 8.86737 1.7912 8.84518C41.117 8.14622 80.4746 8.07966 119.816 8.65658C159.158 9.2335 198.468 10.465 237.73 12.3289C259.788 13.3718 281.83 14.6255 303.841 16.0789C305.034 16.1565 307.008 15.746 307.644 14.9805C308.344 14.1484 307.039 13.86 306.085 13.8045C266.918 11.2194 227.656 9.26678 188.362 7.95762C149.068 6.64845 109.71 5.99387 70.3686 5.98277C48.2628 5.98277 26.1569 6.17138 4.05112 6.57079L1.80711 8.84518C39.5255 7.81339 77.2598 6.90363 114.994 6.09372C152.728 5.29491 190.463 4.59595 228.197 4.01903C249.38 3.69728 270.578 3.39773 291.761 3.14255C293.002 3.13146 294.88 2.87628 295.565 2.04419C296.249 1.21209 294.992 0.879251 294.005 0.868156C264.738 0.490939 235.502 0.257952 206.25 0.202479C176.999 0.147006 148.018 0.246857 118.909 0.524223C102.374 0.679547 85.822 0.890345 69.2864 1.15662C68.045 1.17881 66.1671 1.42289 65.4827 2.25498C64.8302 3.0427 66.0397 3.4532 67.0424 3.43101V3.41992Z" fill="#EFBC47"/>
</svg>
