<svg width="25" height="24" viewBox="0 0 25 24" fill="none" xmlns="http://www.w3.org/2000/svg">
<path d="M23.2098 0H2.7582C1.77852 0 0.986328 0.773438 0.986328 1.72969V22.2656C0.986328 23.2219 1.77852 24 2.7582 24H23.2098C24.1895 24 24.9863 23.2219 24.9863 22.2703V1.72969C24.9863 0.773438 24.1895 0 23.2098 0ZM8.10664 20.4516H4.54414V8.99531H8.10664V20.4516ZM6.32539 7.43438C5.18164 7.43438 4.2582 6.51094 4.2582 5.37187C4.2582 4.23281 5.18164 3.30937 6.32539 3.30937C7.46445 3.30937 8.38789 4.23281 8.38789 5.37187C8.38789 6.50625 7.46445 7.43438 6.32539 7.43438ZM21.4379 20.4516H17.8801V14.8828C17.8801 13.5563 17.8566 11.8453 16.0285 11.8453C14.177 11.8453 13.8957 13.2938 13.8957 14.7891V20.4516H10.3426V8.99531H13.7551V10.5609H13.802C14.2754 9.66094 15.4379 8.70938 17.1676 8.70938C20.7723 8.70938 21.4379 11.0813 21.4379 14.1656V20.4516V20.4516Z" fill="white"/>
</svg>
