<svg width="1512" height="357" viewBox="0 0 1512 357" fill="none" xmlns="http://www.w3.org/2000/svg">
<g opacity="0.5" clip-path="url(#clip0_303_231)">
<path opacity="0.05" d="M-119.507 44.1781C-99.8875 49.6472 -63.1339 76.0428 -25.335 70.4298C12.4639 64.8168 25.5685 19.8262 61.9282 17.2356C98.2878 14.645 112.832 54.9724 149.191 57.9948C185.551 61.0172 200.095 29.2964 236.454 31.7431C272.814 34.1898 287.358 76.3594 323.718 69.7389C360.077 63.1185 374.621 -0.754844 410.981 -0.0352257C447.34 0.684392 461.884 66.8605 498.244 73.1931C534.604 79.5257 549.148 31.9446 585.507 30.3614C621.867 28.7783 636.411 66.6014 672.77 65.5939C709.13 64.5865 723.674 20.3444 760.033 25.5256C796.393 30.7069 810.937 91.7592 847.297 90.4639C883.656 89.1686 898.2 19.596 934.56 19.3081C970.919 19.0203 985.463 87.3552 1021.82 89.0823C1058.18 90.8093 1072.73 26.5906 1109.09 27.5981C1145.45 28.6056 1159.99 94.9256 1196.35 93.9181C1232.71 92.9106 1247.25 25.209 1283.61 22.7623C1319.97 20.3156 1334.52 76.9927 1370.88 82.1739C1407.24 87.3552 1421.78 44.7538 1458.14 47.6323C1494.5 50.5107 1491.24 40.58 1545.4 95.9906C1599.56 151.401 2135.49 196.305 1718.11 313.603C1300.73 430.901 -4.65549 587.058 -458.015 659.02" fill="url(#paint0_linear_303_231)"/>
<path opacity="0.19" d="M-119.507 121.551C-99.8875 127.02 -63.1339 153.416 -25.335 147.803C12.4639 142.19 25.5685 97.1995 61.9282 94.6089C98.2878 92.0183 112.832 132.346 149.191 135.368C185.551 138.39 200.095 106.67 236.454 109.116C272.814 111.563 287.358 153.733 323.718 147.112C360.077 140.492 374.621 76.6184 410.981 77.3381C447.34 78.0577 461.884 144.234 498.244 150.566C534.604 156.899 549.148 109.318 585.507 107.735C621.867 106.152 636.411 143.975 672.77 142.967C709.13 141.96 723.674 97.7176 760.033 102.899C796.393 108.08 810.937 169.133 847.297 167.837C883.656 166.542 898.2 96.9692 934.56 96.6814C970.919 96.3936 985.463 164.728 1021.82 166.456C1058.18 168.183 1072.73 103.964 1109.09 104.971C1145.45 105.979 1159.99 172.299 1196.35 171.291C1232.71 170.284 1247.25 102.582 1283.61 100.136C1319.97 97.6889 1334.52 154.366 1370.88 159.547C1407.24 164.728 1421.78 122.127 1458.14 125.006C1494.5 127.884 1491.24 117.953 1545.4 173.364C1599.56 228.774 2135.49 273.679 1718.11 390.976C1300.73 508.274 -4.65549 664.431 -458.015 736.393" fill="url(#paint1_linear_303_231)"/>
<path opacity="0.32" d="M-119.507 198.925C-99.8875 204.394 -63.1339 230.789 -25.335 225.176C12.4639 219.563 25.5685 174.573 61.9282 171.982C98.2878 169.392 112.832 209.719 149.191 212.741C185.551 215.764 200.095 184.043 236.454 186.49C272.814 188.936 287.358 231.106 323.718 224.486C360.077 217.865 374.621 153.992 410.981 154.711C447.34 155.431 461.884 221.607 498.244 227.94C534.604 234.272 549.148 186.691 585.507 185.108C621.867 183.525 636.411 221.348 672.77 220.341C709.13 219.333 723.674 175.091 760.033 180.272C796.393 185.453 810.937 246.506 847.297 245.211C883.656 243.915 898.2 174.343 934.56 174.055C970.919 173.767 985.463 242.102 1021.82 243.829C1058.18 245.556 1072.73 181.337 1109.09 182.345C1145.45 183.352 1159.99 249.672 1196.35 248.665C1232.71 247.657 1247.25 179.956 1283.61 177.509C1319.97 175.062 1334.52 231.739 1370.88 236.921C1407.24 242.102 1421.78 199.5 1458.14 202.379C1494.5 205.257 1491.24 195.327 1545.4 250.737C1599.56 306.148 2135.49 351.052 1718.11 468.35C1300.73 585.647 -4.65549 741.805 -458.015 813.766" fill="url(#paint2_linear_303_231)"/>
<path opacity="0.46" d="M-119.507 276.298C-99.8875 281.767 -63.1339 308.163 -25.335 302.55C12.4639 296.937 25.5685 251.946 61.9282 249.356C98.2878 246.765 112.832 287.092 149.191 290.115C185.551 293.137 200.095 261.416 236.454 263.863C272.814 266.31 287.358 308.479 323.718 301.859C360.077 295.238 374.621 231.365 410.981 232.085C447.34 232.804 461.884 298.98 498.244 305.313C534.604 311.646 549.148 264.065 585.507 262.481C621.867 260.898 636.411 298.721 672.77 297.714C709.13 296.706 723.674 252.464 760.033 257.646C796.393 262.827 810.937 323.879 847.297 322.584C883.656 321.289 898.2 251.716 934.56 251.428C970.919 251.14 985.463 319.475 1021.82 321.202C1058.18 322.929 1072.73 258.711 1109.09 259.718C1145.45 260.726 1159.99 327.046 1196.35 326.038C1232.71 325.031 1247.25 257.329 1283.61 254.882C1319.97 252.436 1334.52 309.113 1370.88 314.294C1407.24 319.475 1421.78 276.874 1458.14 279.752C1494.5 282.631 1491.24 272.7 1545.4 328.111C1599.56 383.521 2135.49 428.425 1718.11 545.723C1300.73 663.021 -4.65549 819.178 -458.015 891.14" fill="url(#paint3_linear_303_231)"/>
<path opacity="0.59" d="M-119.507 353.671C-99.8875 359.14 -63.1339 385.536 -25.335 379.923C12.4639 374.31 25.5685 329.32 61.9282 326.729C98.2878 324.138 112.832 364.466 149.191 367.488C185.551 370.51 200.095 338.79 236.454 341.236C272.814 343.683 287.358 385.853 323.718 379.232C360.077 372.612 374.621 308.738 410.981 309.458C447.34 310.178 461.884 376.354 498.244 382.686C534.604 389.019 549.148 341.438 585.507 339.855C621.867 338.272 636.411 376.095 672.77 375.087C709.13 374.08 723.674 329.838 760.033 335.019C796.393 340.2 810.937 401.253 847.297 399.957C883.656 398.662 898.2 329.089 934.56 328.801C970.919 328.514 985.463 396.848 1021.82 398.576C1058.18 400.303 1072.73 336.084 1109.09 337.091C1145.45 338.099 1159.99 404.419 1196.35 403.411C1232.71 402.404 1247.25 334.702 1283.61 332.256C1319.97 329.809 1334.52 386.486 1370.88 391.667C1407.24 396.848 1421.78 354.247 1458.14 357.126C1494.5 360.004 1491.24 350.073 1545.4 405.484C1599.56 460.894 2135.49 505.799 1718.11 623.096C1300.73 740.394 -4.65549 896.551 -458.015 968.513" fill="url(#paint4_linear_303_231)"/>
</g>
<defs>
<linearGradient id="paint0_linear_303_231" x1="709" y1="-0.0412598" x2="709" y2="659.02" gradientUnits="userSpaceOnUse">
<stop stop-color="#35FD62"/>
<stop offset="1"/>
</linearGradient>
<linearGradient id="paint1_linear_303_231" x1="709" y1="77.332" x2="709" y2="736.393" gradientUnits="userSpaceOnUse">
<stop stop-color="#F3CD6B"/>
<stop offset="1"/>
</linearGradient>
<linearGradient id="paint2_linear_303_231" x1="709" y1="154.705" x2="709" y2="813.766" gradientUnits="userSpaceOnUse">
<stop stop-color="#35FD62"/>
<stop offset="1"/>
</linearGradient>
<linearGradient id="paint3_linear_303_231" x1="709" y1="232.079" x2="709" y2="891.14" gradientUnits="userSpaceOnUse">
<stop stop-color="#35FD62"/>
<stop offset="1"/>
</linearGradient>
<linearGradient id="paint4_linear_303_231" x1="709" y1="309.452" x2="709" y2="968.513" gradientUnits="userSpaceOnUse">
<stop stop-color="#35FD62"/>
<stop offset="1"/>
</linearGradient>
<clipPath id="clip0_303_231">
<rect width="1512" height="357" fill="white"/>
</clipPath>
</defs>
</svg>
