<svg width="1512" height="652" viewBox="0 0 1512 652" fill="none" xmlns="http://www.w3.org/2000/svg">
<g opacity="0.15" clip-path="url(#clip0_364_161)">
<path d="M-51 372.658C210.333 8.04146 471.667 9.51167 733 377.069C994.333 744.627 1255.67 743.156 1517 372.658" stroke="#D3A12D" stroke-width="3.85935" stroke-linecap="round" stroke-dasharray="18.75 5.51"/>
<path opacity="0.94" d="M-51 348.399C210.333 -0.0451706 471.667 9.51133 733 377.069C994.333 744.626 1255.67 735.07 1517 348.399" stroke="#D3A12D" stroke-width="3.85935" stroke-linecap="round" stroke-dasharray="19.85 7.72"/>
<path opacity="0.89" d="M-51 324.141C210.333 -8.13117 471.667 9.51157 733 377.069C994.333 744.626 1255.67 726.984 1517 324.141" stroke="#D3A12D" stroke-width="3.85935" stroke-linecap="round" stroke-dasharray="4.41 20.95"/>
<path opacity="0.83" d="M-51 299.882C210.333 -16.2176 471.667 9.51144 733 377.069C994.333 744.626 1255.67 718.897 1517 299.882" stroke="#D3A12D" stroke-width="3.85935" stroke-linecap="round" stroke-dasharray="17.64 3.31"/>
<path opacity="0.78" d="M-51 275.623C210.333 -24.3038 471.667 9.51151 733 377.069C994.333 744.626 1255.67 710.811 1517 275.623" stroke="#D3A12D" stroke-width="3.85935" stroke-linecap="round" stroke-dasharray="16.54 1.1"/>
<path opacity="0.72" d="M-51 251.364C210.333 -32.39 471.667 9.5115 733 377.069C994.333 744.626 1255.67 702.725 1517 251.364" stroke="#D3A12D" stroke-width="3.85935" stroke-linecap="round" stroke-dasharray="4.41 16.54"/>
<path opacity="0.66" d="M-51 227.106C210.333 -40.4762 471.667 9.51163 733 377.069C994.333 744.627 1255.67 694.639 1517 227.106" stroke="#D3A12D" stroke-width="3.85935" stroke-linecap="round" stroke-dasharray="14.33 18.75"/>
<path opacity="0.61" d="M-51 202.847C210.333 -48.5626 471.667 9.51143 733 377.069C994.333 744.626 1255.67 686.552 1517 202.847" stroke="#D3A12D" stroke-width="3.85935" stroke-linecap="round" stroke-dasharray="6.62 1.1"/>
<path opacity="0.55" d="M-51 178.588C210.333 -56.6487 471.667 9.51157 733 377.069C994.333 744.626 1255.67 678.466 1517 178.588" stroke="#D3A12D" stroke-width="3.85935" stroke-linecap="round" stroke-dasharray="16.54 3.31"/>
<path opacity="0.5" d="M-51 154.329C210.333 -64.7352 471.667 9.51138 733 377.069C994.333 744.626 1255.67 670.38 1517 154.329" stroke="#D3A12D" stroke-width="3.85935" stroke-linecap="round" stroke-dasharray="8.82 20.95"/>
<path opacity="0.44" d="M-51 130.07C210.333 -72.8213 471.667 9.51158 733 377.069C994.333 744.626 1255.67 662.294 1517 130.07" stroke="#D3A12D" stroke-width="3.85935" stroke-linecap="round" stroke-dasharray="1.1 13.23"/>
<path opacity="0.39" d="M-51 105.812C210.333 -80.9076 471.667 9.51149 733 377.069C994.333 744.626 1255.67 654.207 1517 105.812" stroke="#D3A12D" stroke-width="3.85935" stroke-linecap="round" stroke-dasharray="17.64 11.03"/>
<path opacity="0.33" d="M-51 81.5527C210.333 -88.994 471.667 9.51144 733 377.069C994.333 744.626 1255.67 646.121 1517 81.5527" stroke="#D3A12D" stroke-width="3.85935" stroke-linecap="round" stroke-dasharray="23.16 15.44"/>
<path opacity="0.27" d="M-51 57.2939C210.333 -97.0802 471.667 9.5114 733 377.069C994.333 744.626 1255.67 638.035 1517 57.2939" stroke="#D3A12D" stroke-width="3.85935" stroke-linecap="round" stroke-dasharray="14.33 20.95"/>
<path opacity="0.22" d="M-51 33.0353C210.333 -105.166 471.667 9.51158 733 377.069C994.333 744.626 1255.67 629.948 1517 33.0353" stroke="#D3A12D" stroke-width="3.85935" stroke-linecap="round" stroke-dasharray="17.64 12.13"/>
<path opacity="0.16" d="M-51 8.77631C210.333 -113.253 471.667 9.51141 733 377.069C994.333 744.626 1255.67 621.862 1517 8.77631" stroke="#D3A12D" stroke-width="3.85935" stroke-linecap="round" stroke-dasharray="3.31 22.05"/>
<path opacity="0.11" d="M-51 -15.4824C210.333 -121.339 471.667 9.51151 733 377.069C994.333 744.626 1255.67 613.776 1517 -15.4824" stroke="#D3A12D" stroke-width="3.85935" stroke-linecap="round" stroke-dasharray="2.21 1.1"/>
</g>
<defs>
<clipPath id="clip0_364_161">
<rect width="1512" height="652" fill="white"/>
</clipPath>
</defs>
</svg>
